<mxfile host="app.diagrams.net" modified="2023-12-04T23:16:47.163Z" agent="Mozilla/5.0 (Windows NT 10.0; Win64; x64) AppleWebKit/537.36 (KHTML, like Gecko) Chrome/119.0.0.0 Safari/537.36" etag="Cf-2y8ghkJEAq6Bii7Cf" version="22.1.5" type="device" pages="2">
  <diagram name="k8s-architecture" id="D5uOsTRlW-y20jEgFPlN">
    <mxGraphModel dx="1725" dy="923" grid="1" gridSize="10" guides="1" tooltips="1" connect="1" arrows="1" fold="1" page="1" pageScale="1" pageWidth="1169" pageHeight="827" math="0" shadow="0">
      <root>
        <mxCell id="0" />
        <mxCell id="1" parent="0" />
        <mxCell id="lVymdtiXamUrDzT8Ow2S-22" value="" style="rounded=1;whiteSpace=wrap;html=1;" vertex="1" parent="1">
          <mxGeometry x="90.32" y="280" width="391" height="230" as="geometry" />
        </mxCell>
        <mxCell id="lVymdtiXamUrDzT8Ow2S-16" value="" style="rounded=1;whiteSpace=wrap;html=1;" vertex="1" parent="1">
          <mxGeometry x="101.32" y="380" width="352" height="100" as="geometry" />
        </mxCell>
        <mxCell id="lVymdtiXamUrDzT8Ow2S-2" value="&lt;b&gt;TechLanches.API&lt;br&gt;Pod&lt;/b&gt;" style="sketch=0;html=1;dashed=0;whitespace=wrap;fillColor=#2875E2;strokeColor=#ffffff;points=[[0.005,0.63,0],[0.1,0.2,0],[0.9,0.2,0],[0.5,0,0],[0.995,0.63,0],[0.72,0.99,0],[0.5,1,0],[0.28,0.99,0]];verticalLabelPosition=top;align=center;verticalAlign=bottom;shape=mxgraph.kubernetes.icon;prIcon=pod;labelPosition=center;" vertex="1" parent="1">
          <mxGeometry x="260.82" y="420" width="50" height="48" as="geometry" />
        </mxCell>
        <mxCell id="lVymdtiXamUrDzT8Ow2S-3" value="Deployment" style="sketch=0;html=1;dashed=0;whitespace=wrap;fillColor=#2875E2;strokeColor=#ffffff;points=[[0.005,0.63,0],[0.1,0.2,0],[0.9,0.2,0],[0.5,0,0],[0.995,0.63,0],[0.72,0.99,0],[0.5,1,0],[0.28,0.99,0]];verticalLabelPosition=bottom;align=center;verticalAlign=top;shape=mxgraph.kubernetes.icon;prIcon=deploy;fontStyle=1" vertex="1" parent="1">
          <mxGeometry x="31.319999999999993" y="230" width="50" height="48" as="geometry" />
        </mxCell>
        <mxCell id="lVymdtiXamUrDzT8Ow2S-4" value="&lt;b style=&quot;border-color: var(--border-color);&quot;&gt;techlanches-api&lt;/b&gt;&lt;b&gt;&lt;br&gt;LoadBalancer&lt;/b&gt;" style="sketch=0;html=1;dashed=0;whitespace=wrap;fillColor=#2875E2;strokeColor=#ffffff;points=[[0.005,0.63,0],[0.1,0.2,0],[0.9,0.2,0],[0.5,0,0],[0.995,0.63,0],[0.72,0.99,0],[0.5,1,0],[0.28,0.99,0]];verticalLabelPosition=bottom;align=center;verticalAlign=top;shape=mxgraph.kubernetes.icon;prIcon=svc" vertex="1" parent="1">
          <mxGeometry x="260.82" y="288" width="50" height="48" as="geometry" />
        </mxCell>
        <mxCell id="lVymdtiXamUrDzT8Ow2S-5" value="&lt;b&gt;HPA&lt;/b&gt;" style="sketch=0;html=1;dashed=0;whitespace=wrap;fillColor=#2875E2;strokeColor=#ffffff;points=[[0.005,0.63,0],[0.1,0.2,0],[0.9,0.2,0],[0.5,0,0],[0.995,0.63,0],[0.72,0.99,0],[0.5,1,0],[0.28,0.99,0]];verticalLabelPosition=top;align=center;verticalAlign=bottom;shape=mxgraph.kubernetes.icon;prIcon=hpa;labelPosition=center;" vertex="1" parent="1">
          <mxGeometry x="111.32" y="426" width="50" height="48" as="geometry" />
        </mxCell>
        <mxCell id="lVymdtiXamUrDzT8Ow2S-6" value="&lt;b&gt;Namespace&lt;br&gt;techlanches&lt;/b&gt;" style="sketch=0;html=1;dashed=0;whitespace=wrap;fillColor=#2875E2;strokeColor=#ffffff;points=[[0.005,0.63,0],[0.1,0.2,0],[0.9,0.2,0],[0.5,0,0],[0.995,0.63,0],[0.72,0.99,0],[0.5,1,0],[0.28,0.99,0]];verticalLabelPosition=bottom;align=center;verticalAlign=top;shape=mxgraph.kubernetes.icon;prIcon=master" vertex="1" parent="1">
          <mxGeometry x="560" y="120" width="50" height="48" as="geometry" />
        </mxCell>
        <mxCell id="lVymdtiXamUrDzT8Ow2S-39" value="" style="edgeStyle=orthogonalEdgeStyle;rounded=0;orthogonalLoop=1;jettySize=auto;html=1;" edge="1" parent="1" source="lVymdtiXamUrDzT8Ow2S-7" target="lVymdtiXamUrDzT8Ow2S-8">
          <mxGeometry relative="1" as="geometry" />
        </mxCell>
        <mxCell id="lVymdtiXamUrDzT8Ow2S-7" value="&lt;b&gt;Secret&lt;/b&gt;" style="sketch=0;html=1;dashed=0;whitespace=wrap;fillColor=#2875E2;strokeColor=#ffffff;points=[[0.005,0.63,0],[0.1,0.2,0],[0.9,0.2,0],[0.5,0,0],[0.995,0.63,0],[0.72,0.99,0],[0.5,1,0],[0.28,0.99,0]];verticalLabelPosition=top;align=center;verticalAlign=bottom;shape=mxgraph.kubernetes.icon;prIcon=secret;labelPosition=center;" vertex="1" parent="1">
          <mxGeometry x="561.3199999999999" y="640" width="50" height="48" as="geometry" />
        </mxCell>
        <mxCell id="lVymdtiXamUrDzT8Ow2S-8" value="&lt;b&gt;StatefulSet&lt;br&gt;techlanches-sql&lt;/b&gt;" style="sketch=0;html=1;dashed=0;whitespace=wrap;fillColor=#2875E2;strokeColor=#ffffff;points=[[0.005,0.63,0],[0.1,0.2,0],[0.9,0.2,0],[0.5,0,0],[0.995,0.63,0],[0.72,0.99,0],[0.5,1,0],[0.28,0.99,0]];verticalLabelPosition=bottom;align=center;verticalAlign=top;shape=mxgraph.kubernetes.icon;prIcon=vol" vertex="1" parent="1">
          <mxGeometry x="561.3199999999999" y="720" width="50" height="48" as="geometry" />
        </mxCell>
        <mxCell id="lVymdtiXamUrDzT8Ow2S-36" style="edgeStyle=orthogonalEdgeStyle;rounded=0;orthogonalLoop=1;jettySize=auto;html=1;entryX=0.75;entryY=1;entryDx=0;entryDy=0;" edge="1" parent="1" source="lVymdtiXamUrDzT8Ow2S-11" target="lVymdtiXamUrDzT8Ow2S-22">
          <mxGeometry relative="1" as="geometry" />
        </mxCell>
        <mxCell id="lVymdtiXamUrDzT8Ow2S-11" value="&lt;b&gt;ConfigMap&lt;/b&gt;" style="sketch=0;html=1;dashed=0;whitespace=wrap;fillColor=#2875E2;strokeColor=#ffffff;points=[[0.005,0.63,0],[0.1,0.2,0],[0.9,0.2,0],[0.5,0,0],[0.995,0.63,0],[0.72,0.99,0],[0.5,1,0],[0.28,0.99,0]];verticalLabelPosition=bottom;align=center;verticalAlign=top;shape=mxgraph.kubernetes.icon;prIcon=cm" vertex="1" parent="1">
          <mxGeometry x="561.3199999999999" y="510" width="50" height="48" as="geometry" />
        </mxCell>
        <mxCell id="lVymdtiXamUrDzT8Ow2S-18" value="&lt;b&gt;Kubernetes Cluster&lt;/b&gt;" style="editableCssRules=.*;html=1;shape=image;verticalLabelPosition=bottom;labelBackgroundColor=#ffffff;verticalAlign=top;aspect=fixed;imageAspect=0;image=data:image/svg+xml,PHN2ZyB4bWxucz0iaHR0cDovL3d3dy53My5vcmcvMjAwMC9zdmciIHhtbG5zOnY9Imh0dHBzOi8vdmVjdGEuaW8vbmFubyIgd2lkdGg9IjcwMi44NDYzMTM0NzY1NjI1IiBoZWlnaHQ9IjY4MS45NjcxMDIwNTA3ODEyIiB2aWV3Qm94PSIxMC4wMDEwMjYxNTM1NjQ0NTMgMTAuMDAwOTMzNjQ3MTU1NzYyIDcwMi44NDYzMTM0NzY1NjI1IDY4MS45NjcxMDIwNTA3ODEyIj4mI3hhOwk8c3R5bGUgdHlwZT0idGV4dC9jc3MiPiYjeGE7CS5zdDB7ZmlsbDojMzI2Y2U1O30mI3hhOwkuc3Qxe2ZpbGw6I2ZmZjt9JiN4YTsJPC9zdHlsZT4mI3hhOwk8cGF0aCBjbGFzcz0ic3QwIiBkPSJNMzU4Ljk4NyAxMC4wNmMtNi4yMTMuMzEzLTEyLjMwMSAxLjg1NC0xNy45MDYgNC41MzFMOTYuNzM3IDEzMS4zNDJjLTEyLjgxMSA2LjExOC0yMi4xMTYgMTcuNjg5LTI1LjI4MSAzMS40MzhsLTYwLjI4MSAyNjIuMjVjLTIuODEyIDEyLjIwNy0uNTI0IDI1LjAyNCA2LjM0NCAzNS41MzFhNDYuMzUgNDYuMzUgMCAwIDAgMi42NTYgMy42ODhsMTY5LjEyNSAyMTAuMjgxYzguODY4IDExLjAyMiAyMi4zMTMgMTcuNDQgMzYuNTMxIDE3LjQzOGwyNzEuMjE5LS4wNjJjMTQuMjEyLjAxIDI3LjY1Ny02LjM5NiAzNi41MzEtMTcuNDA2bDE2OS4wNjMtMjEwLjMxM2M4Ljg3My0xMS4wMjggMTIuMTk3LTI1LjQ2NCA5LjAzMS0zOS4yMTlsLTYwLjM3NS0yNjIuMjVjLTMuMTY1LTEzLjc0OC0xMi40Ny0yNS4zMTktMjUuMjgxLTMxLjQzN0wzODEuNjQzIDE0LjU5MmMtNy4wNS0zLjM2OC0xNC44NDEtNC45MjYtMjIuNjU2LTQuNTMxeiIvPiYjeGE7CTxwYXRoIGNsYXNzPSJzdDEgc3QyIiBkPSJNMzYxLjQwOCA5OS4zMDhjLTguMDc3LjAwMS0xNC42MjYgNy4yNzYtMTQuNjI1IDE2LjI1IDAgLjEzOC4wMjguMjY5LjAzMS40MDYtLjAxMiAxLjIxOS0uMDcxIDIuNjg4LS4wMzEgMy43NS4xOTMgNS4xNzYgMS4zMjEgOS4xMzcgMiAxMy45MDYgMS4yMyAxMC4yMDcgMi4yNjEgMTguNjY3IDEuNjI1IDI2LjUzMS0uNjE5IDIuOTY1LTIuODAzIDUuNjc3LTQuNzUgNy41NjNsLS4zNDQgNi4xODhjLTguNzc3LjcyNy0xNy42MTIgMi4wNTktMjYuNDM3IDQuMDYzLTM3Ljk3NSA4LjYyMi03MC42NyAyOC4xODMtOTUuNTYyIDU0LjU5NC0xLjYxNS0xLjEwMi00LjQ0MS0zLjEyOS01LjI4MS0zLjc1LTIuNjExLjM1My01LjI1IDEuMTU4LTguNjg3LS44NDQtNi41NDUtNC40MDYtMTIuNTA2LTEwLjQ4Ny0xOS43MTktMTcuODEyLTMuMzA1LTMuNTA0LTUuNjk4LTYuODQxLTkuNjI1LTEwLjIxOS0uODkyLS43NjctMi4yNTMtMS44MDUtMy4yNS0yLjU5NC0zLjA3LTIuNDQ4LTYuNjkxLTMuNzI0LTEwLjE4Ny0zLjg0NC00LjQ5Ni0uMTU0LTguODI0IDEuNjA0LTExLjY1NiA1LjE1Ni01LjAzNSA2LjMxNS0zLjQyMyAxNS45NjggMy41OTQgMjEuNTYzLjA3MS4wNTcuMTQ3LjEwMS4yMTkuMTU2Ljk2NC43ODIgMi4xNDUgMS43ODMgMy4wMzEgMi40MzggNC4xNjcgMy4wNzcgNy45NzMgNC42NTEgMTIuMTI1IDcuMDk0IDguNzQ3IDUuNDAyIDE1Ljk5OCA5Ljg4MSAyMS43NSAxNS4yODEgMi4yNDYgMi4zOTQgMi42MzkgNi42MTMgMi45MzggOC40MzhsNC42ODggNC4xODhjLTI1LjA5MyAzNy43NjQtMzYuNzA3IDg0LjQwOS0yOS44NDQgMTMxLjkzOGwtNi4xMjUgMS43ODFjLTEuNjE0IDIuMDg1LTMuODk1IDUuMzY1LTYuMjgxIDYuMzQ0LTcuNTI1IDIuMzctMTUuOTk0IDMuMjQxLTI2LjIxOSA0LjMxMy00LjguMzk5LTguOTQyLjE2MS0xNC4wMzEgMS4xMjUtMS4xMi4yMTItMi42ODEuNjE5LTMuOTA2LjkwNi0uMDQzLjAwOS0uMDgyLjAyMi0uMTI1LjAzMS0uMDY3LjAxNS0uMTU1LjA0OC0uMjE5LjA2My04LjYyIDIuMDgzLTE0LjE1OCAxMC4wMDYtMTIuMzc1IDE3LjgxM3MxMC4yMDMgMTIuNTU3IDE4Ljg3NSAxMC42ODhjLjA2My0uMDE0LjE1NC0uMDE3LjIxOS0uMDMxLjA5OC0uMDIyLjE4NC0uMDcuMjgxLS4wOTQgMS4yMDktLjI2NSAyLjcyNC0uNTYxIDMuNzgxLS44NDQgNS4wMDMtMS4zNCA4LjYyNy0zLjMwOCAxMy4xMjUtNS4wMzEgOS42NzctMy40NzEgMTcuNjkyLTYuMzcgMjUuNS03LjUgMy4yNjEtLjI1NSA2LjY5NyAyLjAxMiA4LjQwNiAyLjk2OWw2LjM3NS0xLjA5NGMxNC42NyA0NS40ODMgNDUuNDE0IDgyLjI0NSA4NC4zNDQgMTA1LjMxMmwtMi42NTYgNi4zNzVjLjk1NyAyLjQ3NSAyLjAxMyA1LjgyNSAxLjMgOC4yNjktMi44MzkgNy4zNjEtNy43MDEgMTUuMTMxLTEzLjIzOCAyMy43OTMtMi42ODEgNC4wMDItNS40MjUgNy4xMDgtNy44NDQgMTEuNjg4LS41NzkgMS4wOTYtMS4zMTYgMi43NzktMS44NzUgMy45MzgtMy43NTkgOC4wNDItMS4wMDIgMTcuMzA1IDYuMjE5IDIwLjc4MSA3LjI2NiAzLjQ5OCAxNi4yODQtLjE5MSAyMC4xODctOC4yNS4wMDYtLjAxMS4wMjYtLjAyLjAzMS0uMDMxcy0uMDA0LS4wMjMgMC0uMDMxYy41NTYtMS4xNDMgMS4zNDQtMi42NDQgMS44MTMtMy43MTkgMi4wNzItNC43NDcgMi43NjItOC44MTUgNC4yMTktMTMuNDA2IDMuODctOS43MiA1Ljk5Ni0xOS45MTkgMTEuMzIzLTI2LjI3NCAxLjQ1OS0xLjc0IDMuODM3LTIuNDA5IDYuMzAyLTMuMDdsMy4zMTMtNmMzMy45MzggMTMuMDI3IDcxLjkyNyAxNi41MjIgMTA5Ljg3NSA3LjkwNmExODkuNzcgMTg5Ljc3IDAgMCAwIDI1LjA5NC03LjU2MmwzLjEyNSA1LjYyNWMyLjUwNi44MTUgNS4yNCAxLjIzNiA3LjQ2OSA0LjUzMSAzLjk4NSA2LjgwOSA2LjcxMSAxNC44NjQgMTAuMDMxIDI0LjU5NCAxLjQ1NyA0LjU5MSAyLjE3OCA4LjY1OSA0LjI1IDEzLjQwNi40NzIgMS4wODIgMS4yNTYgMi42MDUgMS44MTMgMy43NSAzLjg5NSA4LjA4NSAxMi45NDIgMTEuNzg3IDIwLjIxOSA4LjI4MSA3LjIxOS0zLjQ3OCA5Ljk4LTEyLjc0IDYuMjE5LTIwLjc4MWwtMS45MDYtMy45MzdjLTIuNDE5LTQuNTgtNS4xNjMtNy42NTQtNy44NDQtMTEuNjU2LTUuNTM3LTguNjYyLTEwLjEzLTE1Ljg1OC0xMi45NjktMjMuMjE5LTEuMTg3LTMuNzk3LjItNi4xNTggMS4xMjUtOC42MjUtLjU1NC0uNjM1LTEuNzM5LTQuMjItMi40MzctNS45MDYgNDAuNDU3LTIzLjg4OCA3MC4yOTktNjIuMDIxIDg0LjMxMy0xMDYuMDYyIDEuODkyLjI5NyA1LjE4Mi44NzkgNi4yNSAxLjA5NCAyLjItMS40NTEgNC4yMjItMy4zNDQgOC4xODgtMy4wMzEgNy44MDggMS4xMjkgMTUuODIzIDQuMDMgMjUuNSA3LjUgNC40OTggMS43MjMgOC4xMjIgMy43MjMgMTMuMTI1IDUuMDYzIDEuMDU3LjI4MyAyLjU3Mi41NDcgMy43ODEuODEzLjA5Ny4wMjQuMTgzLjA3MS4yODEuMDk0LjA2NS4wMTUuMTU2LjAxNy4yMTkuMDMxIDguNjcyIDEuODY3IDE3LjA5NC0yLjg3OSAxOC44NzUtMTAuNjg3cy0zLjc1NC0xNS43MzItMTIuMzc1LTE3LjgxMmMtMS4yNTQtLjI4NS0zLjAzMi0uNzY5LTQuMjUtMS01LjA4OS0uOTY0LTkuMjMxLS43MjYtMTQuMDMxLTEuMTI1LTEwLjIyNS0xLjA3MS0xOC42OTMtMS45NDMtMjYuMjE5LTQuMzEyLTMuMDY4LTEuMTktNS4yNTEtNC44NDEtNi4zMTMtNi4zNDRsLTUuOTA2LTEuNzE5YzMuMDYyLTIyLjE1NCAyLjIzNy00NS4yMTEtMy4wNjItNjguMjgxLTUuMzQ4LTIzLjI4NS0xNC44LTQ0LjU4MS0yNy40MDYtNjMuMzQ0bDUuMTg4LTQuNjU2Yy4yMzctMi42MjQuMDMzLTUuMzc2IDIuNzUtOC4yODEgNS43NTEtNS40MDEgMTMuMDAzLTkuODc5IDIxLjc1LTE1LjI4MSA0LjE1Mi0yLjQ0MyA3Ljk5LTQuMDE3IDEyLjE1Ni03LjA5NC45NDItLjY5NiAyLjIyOS0xLjc5OCAzLjIxOS0yLjU5NCA3LjAxNS01LjU5NiA4LjYzMS0xNS4yNDggMy41OTQtMjEuNTYycy0xNC43OTctNi45MDktMjEuODEyLTEuMzEyYy0uOTk5Ljc5MS0yLjM1NCAxLjgyMy0zLjI1IDIuNTk0LTMuOTI3IDMuMzc4LTYuMzUxIDYuNzE0LTkuNjU2IDEwLjIxOS03LjIxMiA3LjMyNi0xMy4xNzQgMTMuNDM4LTE5LjcxOSAxNy44NDQtMi44MzYgMS42NTEtNi45OSAxLjA4LTguODc1Ljk2OWwtNS41NjIgMy45NjljLTMxLjcxOS0zMy4yNjEtNzQuOTA1LTU0LjUyNS0xMjEuNDA2LTU4LjY1NmwtLjM0NC02LjUzMWMtMS45MDQtMS44MjItNC4yMDMtMy4zNzctNC43ODEtNy4zMTItLjYzNi03Ljg2NC40MjYtMTYuMzI1IDEuNjU2LTI2LjUzMS42NzktNC43NjkgMS44MDctOC43MyAyLTEzLjkwNi4wNDQtMS4xNzctLjAyNi0yLjg4NC0uMDMxLTQuMTU2LS4wMDEtOC45NzQtNi41NDgtMTYuMjUxLTE0LjYyNS0xNi4yNXptLTE4LjMxMiAxMTMuNDM4bC00LjM0NCA3Ni43MTktLjMxMi4xNTZjLS4yOTEgNi44NjMtNS45NCAxMi4zNDQtMTIuODc1IDEyLjM0NGExMi44MiAxMi44MiAwIDAgMS03LjU5NC0yLjQ2OWwtLjEyNS4wNjMtNjIuOTA2LTQ0LjU5NGMxOS4zMzQtMTkuMDExIDQ0LjA2My0zMy4wNiA3Mi41NjItMzkuNTMxIDUuMjA2LTEuMTgyIDEwLjQxLTIuMDU5IDE1LjU5NC0yLjY4N3ptMzYuNjU2IDBjMzMuMjczIDQuMDkyIDY0LjA0NSAxOS4xNTkgODcuNjI1IDQyLjI1bC02Mi41IDQ0LjMxMy0uMjE5LS4wOTRhMTIuOTEgMTIuOTEgMCAwIDEtMTcuNjg3LTIuMzc1Yy0xLjc3MS0yLjIyMS0yLjcwMS00LjgzMi0yLjgxMi03LjQ2OWwtLjA2Mi0uMDMxek0yMzIuMTI2IDI4My42Mmw1Ny40MzcgNTEuMzc1LS4wNjIuMzEzYTEyLjg4IDEyLjg4IDAgMCAxIDEuNjI1IDE3Ljc1IDEyLjg5IDEyLjg5IDAgMCAxLTYuNjg3IDQuNDA2bC0uMDYyLjI1LTczLjYyNSAyMS4yNWMtMy43NDctMzQuMjY1IDQuMzI5LTY3LjU3NCAyMS4zNzUtOTUuMzQ0em0yNTguMTU2LjAzMWM4LjUzNCAxMy44MzMgMTQuOTk3IDI5LjI4MiAxOC44NDQgNDYuMDMxIDMuODAxIDE2LjU0OCA0Ljc1NSAzMy4wNjcgMy4xODggNDkuMDMxbC03NC0yMS4zMTItLjA2Mi0uMzEyYy02LjYyNy0xLjgxMS0xMC42OTktOC41NTItOS4xNTYtMTUuMzEyLjYzMi0yLjc3IDIuMTAyLTUuMTEzIDQuMDk0LTYuODQ0bC0uMDMxLS4xNTYgNTcuMTI1LTUxLjEyNXptLTE0MC42NTYgNTUuMzEzaDIzLjUzMWwxNC42MjUgMTguMjgxLTUuMjUgMjIuODEzLTIxLjEyNSAxMC4xNTYtMjEuMTg3LTEwLjE4Ny01LjI1LTIyLjgxMnptNzUuNDM4IDYyLjU2M2ExMi44MyAxMi44MyAwIDAgMSAyLjk2OS4yMTlsLjEyNS0uMTU2IDc2LjE1NiAxMi44NzVjLTExLjE0NiAzMS4zMTMtMzIuNDczIDU4LjQ0LTYwLjk2OSA3Ni41OTRsLTI5LjU2Mi03MS40MDYuMDk0LS4xMjVjLTIuNzE2LTYuMzEuMDAyLTEzLjcxIDYuMjUtMTYuNzE5IDEuNi0uNzcgMy4yNzEtMS4xOTcgNC45MzgtMS4yODF6bS0xMjcuOTA2LjMxM2ExMi45IDEyLjkgMCAwIDEgMTIuMzc1IDEwLjAzMSAxMi43NyAxMi43NyAwIDAgMS0uNzE5IDcuOTM4bC4yMTkuMjgxLTI5LjI1IDcwLjY4OGMtMjcuMzQ3LTE3LjU0OS00OS4xMjktNDMuODI0LTYwLjc4MS03Ni4wNjJsNzUuNS0xMi44MTIuMTI1LjE1NmMuODQ1LS4xNTUgMS43MDEtLjIzIDIuNTMxLS4yMTl6bTYzLjc4MSAzMC45NjljMi4wMjQtLjA3NCA0LjA3OS4zNDEgNi4wMzEgMS4yODEgMi41NiAxLjIzMyA0LjUzNyAzLjE3MyA1Ljc4MSA1LjVoLjI4MWwzNy4yMTkgNjcuMjVjLTQuODMgMS42MTktOS43OTYgMy4wMDMtMTQuODc1IDQuMTU2LTI4LjQ2NSA2LjQ2My01Ni44MzkgNC41MDUtODIuNTMxLTQuMjVsMzcuMTI1LTY3LjEyNWguMDYzYTEyLjkxIDEyLjkxIDAgMCAxIDEwLjkwNi02LjgxMnoiIHN0cm9rZT0ibm9uZSIgc3Ryb2tlLXdpZHRoPSIuMjUiLz4mI3hhOzwvc3ZnPg==;fontColor=default;" vertex="1" parent="1">
          <mxGeometry x="562.63" y="10" width="47.37" height="45" as="geometry" />
        </mxCell>
        <mxCell id="lVymdtiXamUrDzT8Ow2S-21" style="edgeStyle=orthogonalEdgeStyle;rounded=0;orthogonalLoop=1;jettySize=auto;html=1;entryX=0.995;entryY=0.63;entryDx=0;entryDy=0;exitX=0.5;exitY=1;exitDx=0;exitDy=0;exitPerimeter=0;entryPerimeter=0;" edge="1" parent="1" source="lVymdtiXamUrDzT8Ow2S-20" target="lVymdtiXamUrDzT8Ow2S-2">
          <mxGeometry relative="1" as="geometry">
            <Array as="points">
              <mxPoint x="596" y="450" />
            </Array>
          </mxGeometry>
        </mxCell>
        <mxCell id="lVymdtiXamUrDzT8Ow2S-20" value="&lt;b&gt;Probes&lt;/b&gt;" style="sketch=0;html=1;dashed=0;whitespace=wrap;fillColor=#2875E2;strokeColor=#ffffff;points=[[0.005,0.63,0],[0.1,0.2,0],[0.9,0.2,0],[0.5,0,0],[0.995,0.63,0],[0.72,0.99,0],[0.5,1,0],[0.28,0.99,0]];verticalLabelPosition=top;align=center;verticalAlign=bottom;shape=mxgraph.kubernetes.icon;prIcon=kubelet;labelPosition=center;" vertex="1" parent="1">
          <mxGeometry x="571.3199999999999" y="332" width="50" height="48" as="geometry" />
        </mxCell>
        <mxCell id="lVymdtiXamUrDzT8Ow2S-23" value="2 .. 6" style="edgeStyle=orthogonalEdgeStyle;rounded=0;orthogonalLoop=1;jettySize=auto;html=1;entryX=0.005;entryY=0.63;entryDx=0;entryDy=0;entryPerimeter=0;" edge="1" parent="1" source="lVymdtiXamUrDzT8Ow2S-5" target="lVymdtiXamUrDzT8Ow2S-2">
          <mxGeometry relative="1" as="geometry" />
        </mxCell>
        <mxCell id="lVymdtiXamUrDzT8Ow2S-24" value="" style="rounded=1;whiteSpace=wrap;html=1;" vertex="1" parent="1">
          <mxGeometry x="750.3199999999999" y="282" width="391" height="230" as="geometry" />
        </mxCell>
        <mxCell id="lVymdtiXamUrDzT8Ow2S-25" value="" style="rounded=1;whiteSpace=wrap;html=1;" vertex="1" parent="1">
          <mxGeometry x="781.3199999999999" y="382" width="352" height="100" as="geometry" />
        </mxCell>
        <mxCell id="lVymdtiXamUrDzT8Ow2S-26" value="&lt;b&gt;TechLanches.Worker&lt;br&gt;Pod&lt;/b&gt;" style="sketch=0;html=1;dashed=0;whitespace=wrap;fillColor=#2875E2;strokeColor=#ffffff;points=[[0.005,0.63,0],[0.1,0.2,0],[0.9,0.2,0],[0.5,0,0],[0.995,0.63,0],[0.72,0.99,0],[0.5,1,0],[0.28,0.99,0]];verticalLabelPosition=top;align=center;verticalAlign=bottom;shape=mxgraph.kubernetes.icon;prIcon=pod;labelPosition=center;" vertex="1" parent="1">
          <mxGeometry x="912.3199999999999" y="426" width="50" height="48" as="geometry" />
        </mxCell>
        <mxCell id="lVymdtiXamUrDzT8Ow2S-27" value="Deployment" style="sketch=0;html=1;dashed=0;whitespace=wrap;fillColor=#2875E2;strokeColor=#ffffff;points=[[0.005,0.63,0],[0.1,0.2,0],[0.9,0.2,0],[0.5,0,0],[0.995,0.63,0],[0.72,0.99,0],[0.5,1,0],[0.28,0.99,0]];verticalLabelPosition=bottom;align=center;verticalAlign=top;shape=mxgraph.kubernetes.icon;prIcon=deploy;fontStyle=1" vertex="1" parent="1">
          <mxGeometry x="691.3199999999999" y="233" width="50" height="48" as="geometry" />
        </mxCell>
        <mxCell id="lVymdtiXamUrDzT8Ow2S-28" value="&lt;b style=&quot;border-color: var(--border-color);&quot;&gt;techlanches-worker&lt;/b&gt;&lt;b&gt;&lt;br&gt;LoadBalancer&lt;/b&gt;" style="sketch=0;html=1;dashed=0;whitespace=wrap;fillColor=#2875E2;strokeColor=#ffffff;points=[[0.005,0.63,0],[0.1,0.2,0],[0.9,0.2,0],[0.5,0,0],[0.995,0.63,0],[0.72,0.99,0],[0.5,1,0],[0.28,0.99,0]];verticalLabelPosition=bottom;align=center;verticalAlign=top;shape=mxgraph.kubernetes.icon;prIcon=svc" vertex="1" parent="1">
          <mxGeometry x="920.8199999999999" y="290" width="50" height="48" as="geometry" />
        </mxCell>
        <mxCell id="lVymdtiXamUrDzT8Ow2S-29" value="&lt;b&gt;HPA&lt;/b&gt;" style="sketch=0;html=1;dashed=0;whitespace=wrap;fillColor=#2875E2;strokeColor=#ffffff;points=[[0.005,0.63,0],[0.1,0.2,0],[0.9,0.2,0],[0.5,0,0],[0.995,0.63,0],[0.72,0.99,0],[0.5,1,0],[0.28,0.99,0]];verticalLabelPosition=top;align=center;verticalAlign=bottom;shape=mxgraph.kubernetes.icon;prIcon=hpa;labelPosition=center;" vertex="1" parent="1">
          <mxGeometry x="1071.32" y="430" width="50" height="48" as="geometry" />
        </mxCell>
        <mxCell id="lVymdtiXamUrDzT8Ow2S-32" value="2 .. 6" style="edgeStyle=orthogonalEdgeStyle;rounded=0;orthogonalLoop=1;jettySize=auto;html=1;entryX=0.995;entryY=0.63;entryDx=0;entryDy=0;entryPerimeter=0;" edge="1" parent="1" source="lVymdtiXamUrDzT8Ow2S-29" target="lVymdtiXamUrDzT8Ow2S-26">
          <mxGeometry relative="1" as="geometry" />
        </mxCell>
        <mxCell id="lVymdtiXamUrDzT8Ow2S-34" style="edgeStyle=orthogonalEdgeStyle;rounded=0;orthogonalLoop=1;jettySize=auto;html=1;" edge="1" parent="1" source="lVymdtiXamUrDzT8Ow2S-20">
          <mxGeometry relative="1" as="geometry">
            <mxPoint x="913" y="450" as="targetPoint" />
            <Array as="points">
              <mxPoint x="596" y="450" />
              <mxPoint x="913" y="450" />
            </Array>
          </mxGeometry>
        </mxCell>
        <mxCell id="lVymdtiXamUrDzT8Ow2S-35" style="edgeStyle=orthogonalEdgeStyle;rounded=0;orthogonalLoop=1;jettySize=auto;html=1;entryX=0.995;entryY=0.63;entryDx=0;entryDy=0;entryPerimeter=0;" edge="1" parent="1" source="lVymdtiXamUrDzT8Ow2S-26" target="lVymdtiXamUrDzT8Ow2S-11">
          <mxGeometry relative="1" as="geometry">
            <Array as="points">
              <mxPoint x="937.3199999999999" y="540" />
            </Array>
          </mxGeometry>
        </mxCell>
        <mxCell id="lVymdtiXamUrDzT8Ow2S-37" style="edgeStyle=orthogonalEdgeStyle;rounded=0;orthogonalLoop=1;jettySize=auto;html=1;entryX=0.005;entryY=0.63;entryDx=0;entryDy=0;entryPerimeter=0;exitX=0.5;exitY=1;exitDx=0;exitDy=0;exitPerimeter=0;" edge="1" parent="1" source="lVymdtiXamUrDzT8Ow2S-2" target="lVymdtiXamUrDzT8Ow2S-7">
          <mxGeometry relative="1" as="geometry">
            <mxPoint x="271.32" y="444" as="sourcePoint" />
            <Array as="points">
              <mxPoint x="285.32" y="670" />
            </Array>
          </mxGeometry>
        </mxCell>
        <mxCell id="lVymdtiXamUrDzT8Ow2S-38" style="edgeStyle=orthogonalEdgeStyle;rounded=0;orthogonalLoop=1;jettySize=auto;html=1;entryX=0.995;entryY=0.63;entryDx=0;entryDy=0;entryPerimeter=0;exitX=0.5;exitY=1;exitDx=0;exitDy=0;exitPerimeter=0;" edge="1" parent="1" source="lVymdtiXamUrDzT8Ow2S-26" target="lVymdtiXamUrDzT8Ow2S-7">
          <mxGeometry relative="1" as="geometry">
            <Array as="points">
              <mxPoint x="937.3199999999999" y="670" />
            </Array>
          </mxGeometry>
        </mxCell>
      </root>
    </mxGraphModel>
  </diagram>
  <diagram id="jiVpV5-SggZiEz6mqLoy" name="system-architecture">
    <mxGraphModel dx="2300" dy="1230" grid="1" gridSize="10" guides="1" tooltips="1" connect="1" arrows="1" fold="1" page="1" pageScale="1" pageWidth="1169" pageHeight="827" math="0" shadow="0">
      <root>
        <mxCell id="0" />
        <mxCell id="1" parent="0" />
        <mxCell id="MWWr7V7YPQYtdsiXqIRb-1" value="" style="rounded=1;whiteSpace=wrap;html=1;fillColor=#f5f5f5;fontColor=#333333;strokeColor=#666666;" vertex="1" parent="1">
          <mxGeometry x="230" y="350" width="720" height="430" as="geometry" />
        </mxCell>
        <mxCell id="MWWr7V7YPQYtdsiXqIRb-2" style="edgeStyle=orthogonalEdgeStyle;rounded=0;orthogonalLoop=1;jettySize=auto;html=1;" edge="1" parent="1" source="MWWr7V7YPQYtdsiXqIRb-3" target="MWWr7V7YPQYtdsiXqIRb-9">
          <mxGeometry relative="1" as="geometry">
            <Array as="points">
              <mxPoint x="470" y="524" />
              <mxPoint x="470" y="600" />
            </Array>
          </mxGeometry>
        </mxCell>
        <mxCell id="oO93laWmTxZwHym1CoBp-2" style="rounded=0;orthogonalLoop=1;jettySize=auto;html=1;dashed=1;endArrow=classic;endFill=1;edgeStyle=orthogonalEdgeStyle;" edge="1" parent="1" source="MWWr7V7YPQYtdsiXqIRb-3" target="oO93laWmTxZwHym1CoBp-1">
          <mxGeometry relative="1" as="geometry">
            <Array as="points">
              <mxPoint x="93" y="520" />
            </Array>
          </mxGeometry>
        </mxCell>
        <mxCell id="MWWr7V7YPQYtdsiXqIRb-3" value="TechLanches.Adapters.API" style="sketch=0;html=1;dashed=0;whitespace=wrap;fillColor=#2875E2;strokeColor=#ffffff;points=[[0.005,0.63,0],[0.1,0.2,0],[0.9,0.2,0],[0.5,0,0],[0.995,0.63,0],[0.72,0.99,0],[0.5,1,0],[0.28,0.99,0]];verticalLabelPosition=bottom;align=center;verticalAlign=top;shape=mxgraph.kubernetes.icon;prIcon=api;fontStyle=1" vertex="1" parent="1">
          <mxGeometry x="300" y="490" width="78" height="68" as="geometry" />
        </mxCell>
        <mxCell id="MWWr7V7YPQYtdsiXqIRb-4" style="edgeStyle=orthogonalEdgeStyle;rounded=0;orthogonalLoop=1;jettySize=auto;html=1;" edge="1" parent="1" source="MWWr7V7YPQYtdsiXqIRb-5" target="MWWr7V7YPQYtdsiXqIRb-10">
          <mxGeometry relative="1" as="geometry" />
        </mxCell>
        <mxCell id="MWWr7V7YPQYtdsiXqIRb-5" value="TechLanches.Adapters.FilaPedido" style="image;aspect=fixed;html=1;points=[];align=center;fontSize=12;image=img/lib/azure2/other/Web_Jobs.svg;fontStyle=1" vertex="1" parent="1">
          <mxGeometry x="312" y="645" width="66" height="68" as="geometry" />
        </mxCell>
        <mxCell id="MWWr7V7YPQYtdsiXqIRb-6" value="&#xa;&lt;span style=&quot;color: rgb(0, 0, 0); font-family: Helvetica; font-size: 12px; font-style: normal; font-variant-ligatures: normal; font-variant-caps: normal; letter-spacing: normal; orphans: 2; text-align: center; text-indent: 0px; text-transform: none; widows: 2; word-spacing: 0px; -webkit-text-stroke-width: 0px; background-color: rgb(251, 251, 251); text-decoration-thickness: initial; text-decoration-style: initial; text-decoration-color: initial; float: none; display: inline !important;&quot;&gt;techlanches&lt;/span&gt;&#xa;&#xa;" style="verticalLabelPosition=bottom;html=1;verticalAlign=top;align=center;strokeColor=none;fillColor=#00BEF2;shape=mxgraph.azure.sql_database;fontStyle=1" vertex="1" parent="1">
          <mxGeometry x="850" y="555" width="67.5" height="90" as="geometry" />
        </mxCell>
        <mxCell id="MWWr7V7YPQYtdsiXqIRb-7" value="" style="group;fontStyle=1" vertex="1" connectable="0" parent="1">
          <mxGeometry x="525" y="480" width="240" height="240" as="geometry" />
        </mxCell>
        <mxCell id="MWWr7V7YPQYtdsiXqIRb-8" value="" style="group" vertex="1" connectable="0" parent="MWWr7V7YPQYtdsiXqIRb-7">
          <mxGeometry width="239.99999999999997" height="239.99999999999997" as="geometry" />
        </mxCell>
        <mxCell id="MWWr7V7YPQYtdsiXqIRb-9" value="" style="shape=image;html=1;verticalAlign=top;verticalLabelPosition=bottom;labelBackgroundColor=#ffffff;imageAspect=0;aspect=fixed;image=https://cdn0.iconfinder.com/data/icons/phosphor-thin-vol-3/256/hexagon-thin-128.png;align=center;fontSize=35;horizontal=1;labelPosition=center;" vertex="1" parent="MWWr7V7YPQYtdsiXqIRb-8">
          <mxGeometry width="239.99999999999997" height="239.99999999999997" as="geometry" />
        </mxCell>
        <mxCell id="MWWr7V7YPQYtdsiXqIRb-10" value="Application&lt;br style=&quot;font-size: 20px;&quot;&gt;Core" style="shape=image;html=1;verticalAlign=middle;verticalLabelPosition=middle;labelBackgroundColor=none;imageAspect=0;aspect=fixed;image=https://cdn0.iconfinder.com/data/icons/phosphor-thin-vol-3/256/hexagon-thin-128.png;align=center;fontSize=20;horizontal=1;labelPosition=center;imageBackground=none;imageBorder=none;" vertex="1" parent="MWWr7V7YPQYtdsiXqIRb-8">
          <mxGeometry x="38.04878048780488" y="38.04878048780488" width="163.90243902439025" height="163.90243902439025" as="geometry" />
        </mxCell>
        <mxCell id="MWWr7V7YPQYtdsiXqIRb-11" style="edgeStyle=orthogonalEdgeStyle;rounded=0;orthogonalLoop=1;jettySize=auto;html=1;entryX=0;entryY=0.5;entryDx=0;entryDy=0;entryPerimeter=0;" edge="1" parent="1" source="MWWr7V7YPQYtdsiXqIRb-10" target="MWWr7V7YPQYtdsiXqIRb-6">
          <mxGeometry relative="1" as="geometry" />
        </mxCell>
        <mxCell id="MWWr7V7YPQYtdsiXqIRb-17" value="" style="edgeStyle=orthogonalEdgeStyle;rounded=0;orthogonalLoop=1;jettySize=auto;html=1;" edge="1" parent="1" source="MWWr7V7YPQYtdsiXqIRb-12" target="MWWr7V7YPQYtdsiXqIRb-15">
          <mxGeometry relative="1" as="geometry" />
        </mxCell>
        <mxCell id="MWWr7V7YPQYtdsiXqIRb-12" value="&lt;b&gt;tech-lanches&lt;br&gt;Repository&lt;/b&gt;" style="shape=image;html=1;verticalAlign=bottom;verticalLabelPosition=top;labelBackgroundColor=#ffffff;imageAspect=0;aspect=fixed;image=https://cdn4.iconfinder.com/data/icons/ionicons/512/icon-social-github-128.png;labelPosition=center;align=center;" vertex="1" parent="1">
          <mxGeometry x="720" y="70" width="90" height="90" as="geometry" />
        </mxCell>
        <mxCell id="MWWr7V7YPQYtdsiXqIRb-18" style="edgeStyle=orthogonalEdgeStyle;rounded=0;orthogonalLoop=1;jettySize=auto;html=1;entryX=0;entryY=0.5;entryDx=0;entryDy=0;" edge="1" parent="1" target="MWWr7V7YPQYtdsiXqIRb-16">
          <mxGeometry relative="1" as="geometry">
            <mxPoint x="809.9999999999995" y="255" as="sourcePoint" />
          </mxGeometry>
        </mxCell>
        <mxCell id="MWWr7V7YPQYtdsiXqIRb-20" style="edgeStyle=orthogonalEdgeStyle;rounded=0;orthogonalLoop=1;jettySize=auto;html=1;" edge="1" parent="1" source="MWWr7V7YPQYtdsiXqIRb-15" target="MWWr7V7YPQYtdsiXqIRb-19">
          <mxGeometry relative="1" as="geometry" />
        </mxCell>
        <mxCell id="MWWr7V7YPQYtdsiXqIRb-15" value="CI/CD&#xa;Actions" style="shape=image;verticalLabelPosition=bottom;labelBackgroundColor=default;verticalAlign=top;aspect=fixed;imageAspect=0;image=data:image/png,iVBORw0KGgoAAAANSUhEUgAAARgAAAEYCAYAAACHjumMAAAydklEQVR4nOydDYgdV3bnT82IpRIEWwKz8wxGLtUYRmaGdos4WGJadDWuME9kBrUYZ2WPO0hiJm2JJFgGx6omztZ9xLNd9jpIZj1Y7jhYYtuxRBzUghn0ZrdCV6c1SCYe1O51kMKa55IwzAsYpnZXJJVFUMvtvs9qtfrj3Vv31sd75wdNHM2rW7f7X+/Uueeee84W6AFMPzUAYDf7+QYA1Og/s5+1SADgKvvvGwDwzwDQjFztao7TRpCeRyt6AjwYjrcTAB7TLXtQt2z634+wH13ibT4HgE8BIEpa4adJK/wEAD6Og0Yk8R4I0heU3sBQo2I45AQA2Bt4JHmwAACnIlc7W+AcEKRSlM7A6NbwVt2yn9Qt26Y/APAtACjTUi6my6qkFQZJK/xZ0go/Slpzd4qeFIKUkVIZGNNPDwPAJIuhVAXq2bwQuVpY9EQQpGwUamB0a3iLbtlDhkMOAcDTkmMpeXM1Dsg5AJiLg8ZC0ZNBkDJQmIFhOz/vA0C9qDko5EzkakeKngSCFM1Xirip4Xi7AeCzHjUulMOmn84ajldkUBpBCic3D4Yth75vOKTeA8uhbvkCAN5pT9k/SVpznxc9GQTJm9wMjOmn7zPD0o+0AWBf5GoYm0H6CuVLpNr47PdNP/2sj40LsF2xa2zZ9O2iJ4MgeaHUgzH99CQAHFd5jw1YeRxgNTsL3Aqn83omcrWZgu6PILmhxMAYjmcaDnlLcRA3BoBP6E8ckPaKM0VRt2n9huMZzNDQn68bDnmEGZ9B1VnDSSt8M2mFfxIHjUTlfRCkSKQbGJYs967scVewAACNPDwA00+fZx6YKmMTxQHZEweNtqLxEaRQpBoYw/G+YzikKXPMFVDDMhG5mqrx18X000MAQBQZmtORqx1TMC6CFI4UA7NiC/qUxNgGXTo0k1b406QV/m0cNGJJ4wpjON6w4ZBRVhbicYlnpGbigDQwAxjpNaQYGLaUOCVjLAZdOhwo8xfO9NM6y0Q2ZI0ZB2RXmX9nBOHlq1kupp7LQyeiPwaAVwDg32WcC/VYgjggL7anRo4lrblSxyXioPEpALxBjeGWbeZ2GZ4bOz3+i7L/7gjSLZk8GMPxDhrO0gG/rNC39kjkaoUvg0Qx/XQSAFwZY6Eng/QKwh4MC+ieBoCtGe7/OQD85/aU/cdf/M2RyhoXWPZo/g4A5nTLTthWt7BHxzyZv01ac7flzhJB8kXIg5G0FR2zLdobGccpHZJ20+jf51HcwkaqDPdRAXZCOKtxoV+aHb1oXGDZm/k5ABxgcSVRDMMhByVOC0FyR8DALGXoZmGmPWXbVY63dEPkajNJK6yzDGNRXjYcz5Y4LQTJFa4lUsazRX17Bsf002vs+IEoI1iSE6kiXXswtfHZ72cxLkkrHOtH40JpT9nfo55bhiEuGY73mMQpIUgudO3BsJILIqny1HPZg7VQMgfHZyJXOyB5SgiilE09GN0a3mL66QVR48I8l743LrAclzmTtELRXJnvmn76nOQpIYhSujAwNl0ajQqO/0x7auRvBa/tSdpTI68CwBmBS7cAwGnW3RJBKsGmSyTTT6lLf1hgbOkuPTv/89yKei0xywKeiwNypkrtXTMsOd3I1V5VMCUEkc6GHgyr/i9S6rLdnrKlpM0bjvckXaKZfvorALjEvKnOF9NgLWU9wyH/y/TT2dr47CEZ91VN0gp/JJgnc5QVykKQ0rOuB8P6Fn0mcFqYehU7ZOS5mH5KqPEQuHSBncYutUeTIeiLfZeQSrCmB6Nbw1sESxF8HgdkjwzjUhufPSloXCiDhkPmTT89UeaYReRqZwBgWuDSw1g8HKkC6xgYe0iwnu6bMtL/TT89qVt21mLhDwGAbzjkepl3X+KA/JnIdYZDfiR/NggilzUNDOsVzctCe8p+O+uEDMf7joJOBG+afnrJcLxhyeNmhi3jRgXiMXWMxSBlZ80YjOmn/8rZeZF+OR6UFHe5kGFbvBsacUD8slXzF4zHYCwGKTX3eTDsQedt6xpKPLyo+nCfZzhkUvE9uGHxGN6g9CgLxiNIKbnHwOjW8FYA4P7yxcFS4anMmH76tMwatxtw3PTT66afero1/FAO9+uKpBW+w3kJ/VtlPd2OIMpYZWDsJwVqy0Zx0LgoaT55BmN3AgCpjYfzpp8qbbLWLUkr/InAZU+zGj0IUjpWGxje5UkSB0Rmtu5uiWN1C/1yflYbn32r6C8qa81yVODSJxVMB0Eyc0+QV6BuidTjAKafprLGysDTkaudL3ICAscIzkWu9ozCKSGIEF96MCwh7Vs8Fyet8KdKZtUdYdIKxzJWjFuLadNP3zcc75BuDfMGu6WQtMIPOC8ZUjQVBMnECgNDTvB2KkxaYaEnpdtTI+9FrvYoAIywIwoy2LIc1yBnauPhBUljcpG0wp9xXvKQ6acqt/YRRIiVMRje+MtCGdq5wvIWbyh44nsz6nTZaDierHa43SJSP6d0SYQIsmRg2PKIN8A5oWZKYkSudjEOyINJKzyVsZr/agYNh/yD6acndGv4AYnjrgsz3Lw1Yw4XtaRDkPXoeDC89V4XIlfL2vdHOnHQaLenRl4AgEclx2aWzjXlvKXd4Py8oVt2aQ92Iv3JkoHRLZu34j3vw58rkatF7Sl7LwAQALgqcWj6Bb7OzjUpPc1MfwcA+ITzsm8qmg6CCNExMDxvvrgK3QGS1twXkas1IlfbQ70PiUPrywcNyWXTT4nheCqXJR9xfv4RRfNAECE6SySeB5P3rVo4katNxAEZAQDZ2+qe4ZBZw/EOsho6UokDwhXsNRzClWaAIKrpCwMDy/GZMHK17wHAEclB4N2GQ87VxsP/JnHMDh9zfr4056oQhPIVdhq3azc/Dkilm7GzU8sqtrSfZrWDZR7W5P1b572djiAb8hWB8z+Vb1gfudr5OCA74oAcFyiRsBGjAHC9Nj4rJQCctELeuaGBQUqFiIH5Z0VzyZU4aERx0HgjDsgeAJDZ97mmW/abMgZKWnMJ59x000+z9MBGEKlQA/MNzmtKXamflzhotCNXG5F8rmnQ9NO3JAV+eeeEXgxSGr7C+0CWvRWIKCvONZ2SNORR3bIflzDOP3F+voiSFwiyJl/hPCJQqjq2KmhP2X8SB6QOAKcB4HaWsXTL/l0JU8K+3khl4TUwMrNiS0nSmrsTB42fR652LA7I72Q5pc3av+TNwwXcE0HWZNPm9/1MHDSoQd2VIe4k49wSrweD5TOR0oAGZhPYuabfZueaPue8PHPAVWK3BgTJHTQwXdA518SWTDxg+QSkr5F+fqYX0a3hrbplf99wyIucl95RNCUEqQRoYDaBpf5fEGwIx7ukWuv+GFNBKssWtvXcrSvfNwWNDMczdMv+QwB4MUMzOBmJe7wGpud3+pDqsIU9kN2+nfsiS9T00+MA4GXtMhkHRMYRBN45/JuEeyKIFLiDvPTNrmYq5cD0U2pYTkpqYSsjSQ7PFiGV5St41mWZ2vjsftNPr7DtaBk0k1Y4J2Ec3sQ5mQc3ESQTWwROR9d6oWRDB+qRGQ4RDeKuRztytX2SxuL1YPBoAVIaqIFpsnhDt3y9F96SrA/1d9jWs8xatknSCkX6S9+Hbg1v5TQwtzExDykTWyJXu2r63beENhzySByUuqnApph+ehAAzikYmnoPR9pTI1K8CN2yeQ3fFzLuiyCy6AR5efI1KrtVbTjeE6af0uXQtOSh20krfDEOyJ7I1WQuUXhr9fTM0hXpDTqJdp9yFIyu5K6G6aeEcynYLU2J8ZZ7MBzC+7fuyVo9SHXpGBieB7NymaWmn54EgOMKhg7jgDyjYNwOXH/rqhdkR3qPpSVS0go/5bnI9NPnlc1IEro1/JDpp57pp9cVGJerSSscjVxthPWRVgVvdTrcQUJKxZIHk7TCT3SLa5eWfmHfUDarjLDC1xcUeFvUQ9gnOc6yJux34J0/bx8lBFFKJ8j7S87rTNNPDymYTyYMx9tp+um7AHBNsnH5AgBIe8r+7TyMC2OS8/NRr9ZLRqrLkgcTB43PDWepTSlPUJEAwFl1U+PD9NPnWB1d2URxQEby/PKyHJ0652Wl9SiR/mXlWSTeavqm4XjDkufDhW4NG4bjPWf66SUAkNKLaAVR0gr/KA7Io3l7BgLFwpM4ICryehAkE9rK/8f0019zHvI7FbnaC7ImY/pp9xl/ywHNREGbDjrmMdZithCYweTxYK5GrrZH4ZQQRIjVBaducH5hi+zBoyof53DkaucVjd0tuHuE9AT3lGtIWmHAef3jpp/yxgo2orBzNEkrPB0HZEfRxoUFqblKRUiqO4Mg0lltYH7GeT31gN43HE9WcesivigRAOxoT40cK3oXxnA86pUdFrj05wqmgyCZWW1gPhJwtw3dsp+VNJ+3JY3TDVdXbD2XYntXt2yRrX9fcbIfggijrf4H009tAJjlHGchcrVdMiZk+ulnORxH8CNXm1B8Dy5YcfFfcbY6iSJX26FwWgiSiftKZkauFgoUjh40/ZQ3MWxNklaocrt1hp14LpVxMRyvxjKPeYzLHQA4onBaCJKZr67z71t1y+YN3g4BwFzSmsu03NiyzfxH3bJ5+w9tBl1CPBO5WiNpzWVuJSKb2ng4L7Bz9Pf091E0JQSRwnpFv4VqyRoOOZhtOktZxW0Fb+bDkavNSB5TCobj2YJb7rhzhJSeNQ1MHDQWAEAk0WzMcLzvZJ1U5GpnklboZxzmRhyQw3FAHoxc7WLWOanAcDzdcIhIjZokDsh7CqaEIFK5L8i7EtNPZwWLYR+Q4TGYfjoKAO8L9HieiQPyTBw0kqxzUAnLeRHZlm5Eriar+wGCKGO9GEyHOd2yxwDgNznHHdUt+/LtX569mWFu1JO6QY2Fbtn/jxmZBzZY1n0BAP89Dsjx9tTIj5PWXKn7QtfGZ3+4ZZv5nwQu/ShyNVlpAQiilA09GFh+y04CgCsw9o3I1R4Vm9baGI5nGg6hb/zHWLYr9VA+BICFOCDNsnssHVi/6esCnhksL/sapTnFjiAbsamB0a3hh2rj4T8INlxbaE/Z3yvjzk1R1MZnv61b9geCf8+wPWXvS1pzlTCkCLKpgYG71dWuCd5jJnK1A4LX9hwZEgnbkas9qGBKCKKMrnpTsypuotuio6afigQyew4W1BXNUi7lNjuCbMRmQd6VfKpb9g/WKPHQDaO6ZSe3f3n2FwLXVh66LHrg9878fYb2tFF7yj5y59c3/4/kqSGIUrpaInVg28YXMtzvTORqfZXezgK6VwRjLsCykHdgS1ikinS1ROoQudpM0gqzlKY8bPrpZ7Xx2SczjFEZauOzP2S7RaLG5dM4ILvQuCBVhcvAwPJhxD/J2EHQ1C37p70clzEcTzf99F3dst8R2YruEAfkxaJr1CBIFnhiMEuwBLbzumVvBYDHBe+7BQBGDYc8AgDXktZcz7yhDcezDYf8Jf39MgxzGwBeak+NYL4LUmm4YjCrYY3ks3yROoyW9bxQtxiOVzMccklSreDS1atBEBG4l0griQMiq1zAuSovmUw/NQyHvC/JuMRxQLDHEdITcC+RVpK05toAcFG3bJudExKls2Q6rFu2vmWb+Y9VyFY1HG/QcMiJLdvMcwDwiIQhL8cBGWYlKxCk8mRaInVgXzTRTN/1OBq5Wp41ernIcBJ6PWLW5A2NC9IzSDEwcNfI0GXCTlljsu6KH7BuBwtFFrc2HM/ULft3dcv+Lqs+x9VaZANuA8CbdFmExgXpNaQZGLgb6Lwu8cu3mjOsFkpuW7fsHNakQK/objkeuRrGXJCeRKqBgbtG5iAAvJwxLrMRnwDAR3Gw1LD/YwBoJ60wyhK30a3hrbplPwIA3zAcMsjODO1W2OHgU5bnUundMwTZCOkGpgPLB+Ftf5KVkLW//acV/Z0WVmbCstR9k3lZ1JA8zP6vqla0axHHAdmFSXRIr6PMwMDdHkuXsmSz9iDUqJQi/Z/pY68o4LV7Ha2osW6z4l4Ra7Z/o4Ap9x1V10ipgYFlT+YxwyEEAL4reBK7V6Diz7Sn7B/nXYCL9V36tuGQx5mntlPC0i9mS9VP4oBcpQ82K3GKCNCrGik3MB1MP30OAE7ndb+SEUauNpL3Tdly8KSkbOtuoA80waB19/S6RrkZGFi20jsNh+wHgKM5tIctAx/FAXkzaYXn80ocNBxvULfsZ3XLfqrAvzF9iD+IA/JB0grnqpA0mSf9pFGuBqaD4XiG4ZCTkhPVygQV69W8W4soSP6TAXXN95Uh5lQG+k2jQgxMB8Px6JrzRyzHRLRmSlm4AwCX6XIoDsh7cdD4NI+bUmOtW/bzumUfV5h/lBVqcK8mrfD19tTIz4qeTN70s0aFGpgOKzya0RILsBERAByJXC3Xdq6mn9IH1qvY36wSTfFk0e8alcLAdDD9lIrwFgA8XfRcOCiktILpp88DwKm87yuJviidihqVzMB0MBzPBIAnDYc4ADAEAA8VPSdGwvINFuKAUG/l53mfj9Kt4a/XxsNXAOCpim/7X40DcjwOGh8WPRHZoEZ3KaWBWQ0rNj7MgmNFuJp0CfRGHJBzRR5IZB7etR7agaMGew9ri9MToEb3UgkD00G3hnXdsncCwDeZdyMzGn+b9be+QQ1KHJA281Y+LkNKf218dr9u2ad7IBi+GvoAN9tT9jFWX6iyoEb3UykDsxKWQs171ulqJ1oOAP/G/i1cfV6pbLAT3VdyOHIRrVHQvSa5BMd6VLoDKGq0Nn1lYOKA1OOg8XN1s5KLbg1vrY2Hf84SE2U9uJ04UsTSx5dOo2+WQs5S2elD/DXdsgfpD4uPbZU0L2BHKSrlyaBGG9NvBsaNg8ar6mYlF9NPTwCAL2k4+tCeiwPSkLXkY+kFxwHgeYmxsUp5MqjRxvSVgQGA05GrHVM0JamwYGGWpm0rocu/ZyJXa0oY6z7YEZC3MrTGXUllAr+o0eYaZeoqUEGcoifQDbo1nLXdbIerSSs8HAfkQVUPLix5ho0bkauNxAHZkbRCnz2AotBlxhXD8Z6QOEXpoEbdadRvHgxlJO+MW14knFdps7MlhXgB7M1+idUuEeVq5Gp7JE5LKqjREptq1G8eDOWkbg2XtgCW6aeHAGBM8PI7AHCmPWUXusSIXC1uT9nfAwDCtv9F2E2/xIbjlU4r1OhLNtWoHw3MoG7Z3yl6EmtB18mssLlo9ufLkasdSVpzheftJK25LyJXa8QBEf0iUg6zThWlATW6jw016kcDA4ZDynZcfgnDIX8qeOkXAHC8PWX/heQpZSYOGhfjgFA3ekZwiNHa+Ox+ydMSBjVak3U16scYTIddZdqpYJXNPhO5Ng7I4TholL5RfoZe5oVUBFwNarQha2rUlx4M42TRE1jFu4LXUSN5XvJclBAHRDQHaTcLShYNarQ+a2rUzwbGptZat4ZlZjkKYfqpJ5CfcAcAfOraVqW2Shw0rsYBGRUIKurUWy0yOI8abcqaGvWzgYHltWP4wyInwEpTiJTW/GnkahNVeXA7sEZzrwtcOqhb9rCCKW0KatQ192nU7waG4hqOlyUXIBO6ZYsEMOM4IC8rmE4utKfsn7ADp1wYDnlKzYw2BjXqntUaoYEBqBkOuWI4Xp6dHb9Et2yRgNqROGj8o4Lp5ELSmvsCAPYJZJMWZWBQo+65R6N+3kVazQ1WhzS3nSV2PuQa5yncZuRq+xROq2tW1Od5mP3T/05a4UdJa66r9XttfHZSt2yX87bH8+y7hBpl06jK5fxk03mQduVlZAyHnOA94h8HpBTN69iOwewaPb0jADjQTQpA0grfFnh4CQDkaGBQoywa4RJpFYZDRLciRRBxvecUzIMLVnfk2hoPLrBSkbPdLDlZSQLec2EGy6bNC9Qog0ZoYO5n0PTTX5l+6unW8AOqbsJOovLmdhzPu8j4auiDazjkbzapOWsYDnmrm3NEcUCOsVIFPORy0ho1WiaLRmhg1oZaf1IbD+cVJnjxBpXbRfd8Nv100HDIdVYlbTN2Gw7ZtP0Mq9LG9XsZDslr1w81yqgRGpiNoW7er2rjs2/J3mUyHMI7XiDz/rzUxme/z+qf8Bhcr5sPxQE5xZnY9S2OzwqDGt1FVCM0MJuj65Z91HDINdNPL0j0aLjiCHFALku6Lzf0rahb9rRAzdmuWnewJQXP75eLgUGN7iKqERoYPkYB4Nemn16vjc/+V8PxDmYIOPJ+SQppULbirSiSpt918e6kFfLs3Bmmn+YR6EWNViCiEW5Ti7FTt2z680ew7EoDO+r+MTvY1k1AjCuAnGd+TgfWikPkrdjhXLcfpA+vbnEd9amzHlYqQY1WIKJRPxmYBgDsFwjcdcuo4JZmN+T+4LJtztmMrTh4AoP/zDn2SdNPy3QiHjW6H6OfDAy0p+yna+PhOYVGRhVd5yEYjrdbt+z9rCeOzrypG3FAprtNXV+xzSkcb0pa4en21AhP1TbV3ohqUKP7eaKfjgo0IlcjkK2oTlEciFxt02pjpp8+DwCn1vmfu2o1wVzu2Yw9dBZEShSYfppmuGfRoEZr3KMvg7ztKfv3WTpz4XVRu2TTmI7pp3UAeGWDjyy1mmABwTUR3OZczQcZ6p9U2YtBje5nsC8NTNKaux25GvVodmSoQ5obm7VZYdmYl7poEarrlj3N3oD3kGGbcyX0rfj7GeqfVKZl7GpQo7XpSwOzkvaU/UwcLBUB/6TouWTg2xyfXXpLmn56slPNL+M2J7AErONVqtxWAH2pUV8Fedciac0lSWvuLACcNxwySUUoek4CPMT5efqQHq+NL710z2bc5gTWiqPQFPkK0Jca9b0H04Fa9cjVXsjYrU8JCs9DHZWwzUld7rclzqmSoEZrgwZmFZGrnY0Dso0VPn5H4BSpCjbbVv9UcFy9wGDhWnSVtl5SUKM1QAOzBnHQiOOgcTFytT+IXG0b82qKNDSbifrLAuaXNVi4FlU2MKjR/YRoYLqAejXU0MQBGYwDQl1WHwB+yra57+QwhQ3rn9AHKA7Ivhx3YWS/FSHnIlIqQI3uJ+77IC8PcdD4GAA+joPGl/9mOJ7Oal8MMlf2sS5dWp5DHfUu5naVrtcNh6jedlfxVgRWg4eHKIc8JtToXng1+hgNTEaW30yNkLesoOmn/7eLnIgvP244Xi0OGhu+/Vg/m1HDWaoJy/swbMZtAHg5DsjbirY5H+P8/JHNck+yghrdB69GIRqY4vics94IdcEvbvYh9gCDgrek0m1O3ip1qo0LAzVagYhGGIMpDt61eNfBNfYAn+Gf0rrksc3JEzzM64gHanQv3BqhgSkIzuI99O3BVYgjcrUjbKs9a1BRerBwNaw1K88J91zOLKFGdxHVCA1MQfA+vN0EEVdD35Js10sUVcHCezAc4nEmkuVSewU1uouoRmhgioO3vKJu+ulbvDdhD7DIW1L5WxHunjDetLL9SuKAfKRuRveAGmXUCA1MQbBWELyxhKPMVeW9F+9b8kzkar+n/q24dML4fYE0+F8omtI9oEbZNUIDUyy8LTlBt+wfityoy7dkm34mcrUjIvfgRbfsgwJp8DObbQVLBjXKoBEamAKJXO08r1vcKTQuAnuAR9Z5K8dxQA50tlDzQLdskdjDCwqmsi6oUTaN0MAUz1XOzxumnxLRm1G3nxXaOgAAp1nBrWPLRyEavHMRhhVU4u3QGEWuVkQVQtSoe+7RCBPtCiZphTO6ZfPWB/Zq47Pz7amRvxO9L6sfW0g1P90aNll1Ny6SVviBmhltel/UqEtWa4QeTMEkrfC8yHW6Zb8ufzb5UBsPPZE0+aQVvqdmRpveFzXqktUaoYEpGLYLcJhVlOdh0PTTC6w3TiXQreEtpp+eAIAxgcvPFNHYDFAjHu7TCA1MCYhc7SwAvCpw6ajhkOtVeYBr4+EfslIXvEvzOK9dk/VAjTZlTY3QwJSEOCC+YOFxw3DI35T5AV4uaeEdEtnyhWW3e70+QrmCGq3PehphkLckMDf8dcMhIgfghuhbEgAezTlHZFNYvZwrGbppxkkrLEVBcdRoXdbVCD2YcnExQ1lF+pbkTlNXDTvDkqVVbyMOGmWoi9wBNbqfdTVCA1MilmsBL5VVFH2AR00/vVYbn31S8tS4MRzvm6xF74uCQ9wBgOORq5ViedQBNbqHTTVCA1MyWCJVli/VoG7ZQZZEr6yYfjpqOOQy6/8tugz/oKy9llCjL9lUIzQwJaQ9Zf+FhAQrz/TTX9fGZ/9c5PAdL4bjGYbj7Tf99BIAXMjYaiNqT9kvS5yedFCj7jTSMtygUEw/tVlDqm5pRK5W2BtDBOpKZ1wbr+R05GrHJI11D6afPp/xjb6SNgA8GrlameIu64IabQwamBKjW8PfqI2HocTi0AkANOOAhOww3YciOxqG49Ev1BOGQ4YAwJE5v6QVPt2eGsntMF9WUKONQQNTclhL0lmJb8nV0Ie4yYor0f9eWPlmMv10N3s4h1kbD1XzoF+sPZGrFZKtmwXUaH3QwFQA9gBfV9DmokycYr3BKwlqtDYY5K0A9G3VnrLtvGrR5gx1/0l7yv6zoieSBdRobdDAVISkNfdPkavtKur4viJusGBhI2nN3S56MllBje4HDUzFaE/Zv0/fJgU348/KHQA4056y91Vlt4gH1OguaGAqBn2L0LdJxmzSovlR5GpHktZcEdXplIMa3QUPO1YUlk26AwD2Gw55EQC+VfScumA6DsiPWbX+ngc1QgNTadgBs7MAcN5wiAsAJwTaS+RByJrV96THshH9rhFuU/cQpp8ektzvWAaELheKnkRZ6DeNMAbTQ0SudjYOyG8krfAw28koou5IAgBXk1b4YhyQHWhc7qXfNEIPpscx/fQgK4Go+jBdvNxwi7zaLzEWWfSyRhiD6XFY47DzhuPtBIAndMsepD8s4/QhANgqMOwXrHTkjTggC8sN2Bu8fZwRRi9rhB5Mn8Oaa+1kP/9+jXMsEQDcZP83ilwtLGiqfUuVNUIPps9hB9d6Mb29Z6iyRhjkRRBEGWhgEARRBhoYBEGUgQYGQRBloIFBEEQZaGAQBFEGGhgEQZSBBgZBEGWggUEQRBloYBAEUQYeFehzqnzOpV+YaPJpNFkvj0ZoYPoEWSd1TT+FspzU7TWGxpY12j5gDz48IK7RRPNejeanlzW6PI2nqbsGT1N3Ry/XGukVJpr5ajQ/TV69PJ2PRv1kYJQ1Fi8ThuPpumUf1C17FAB2F9BpsFMtbSZphRfjoNF3dXg3Y2jM07cP2AcfHihWo5uL4cytxfDi5Wl1GlXZwBgA8GuOS8LI1UYUTqlw+q3eaxWZaJZTo8m6Go0qa2Bg+QuVcnw8jlxtm8LpFAb1WvqxYn2VoF7L3rHyazRZl6vRV2UOljeGQ45yBMCoqD9JWnP/onhauWE4nkGXQ4ZD6BvxP5Y4aG8CwHHDIY8AwPWkNfdF0RPKi6Exz6DLob1j1dBo79iyRrcW5WhUdQ/m2hpbdusSB2QPa4ZVeQzH22045BL9z6LnIsDhyNXOFj0J1QyNebv3jlVXo8l6do2qnmjH6849pmgeuaFbw1tNP/UqbFwo75h++q5uDaveNSmE7QPDWyeaqVdh40J5Z6KZvrt9IJtGVfdgJgHA5bik8jtJpp9eAIDRouchiRsAsKfXGuBPNHtPo8m6mEaV9mDigPDu5e9WNBXl6NbwN9iSsFceXGCZqddNPz1BPbOiJ5OV7QPD35ho9qZGE830BPXMeC+utAdjON6g4ZBrnJftqNpuBtuSv15AvkSenIpc7YWiJyHKRLM/NJqs82lUaQ9GIAYDVXu7MOMyq/DBpX/D0wBwBABGAGBb5Gpa54f92wH6cClunXGUnYuqHMy45KrRZF3TOj95asTORXVNpT0YWP4CXgKAOsclcXvK3pG05kq/7qfLotp4GEp8cBMAaMYBCdlD+2EcNLh7I1PPEQCeMBwyBACOzPklrfDp9tTIRUnjKYcui559Tb5G89N3Nbo8za/R0NiyRnvH5Gt0czF8+q9f6k6jXjAw1CO5wHNNHJDDcdAo/TYp7zb8JigLcJt++jx7e8qAfpkerUrgl8VcpGk0WVej0URTvkbdBH6rvkSCyNVmAIArt8VwSKmXSWwr+oKEBzdOWuErcUB2qNw9i1ztjTgg2+Jg6e/azDgcfdNe063hr0uanhLYVrQUjW4uhq/MT5MdqowLZbKuvTE/TbbNT8vTaPvA5hpV3oOBuzVNeIO9u1hLztJh+qkHAFlPfhd2epx5le9mzAE5F7naMxKnJZWJphyNJuvFaDTRlKPRZH1jjSrvwcDd3r2fcF52wXC80iV6GY63GwCOZxhiIWmFTpGlKahXGQdLa3/qXd4RHOYptvQqHUNj2TW6uRg6RRkXWPZoZuans2vEll7r0hMeDIi/9aM4II/GQSNRNC0uDMczDId8luGtMhO52gHJ08qEQDLkal6IXE1W7CAzQ2OesXcsm0aT9XJpNNHMrtFkfW2NesKDgeXArchyh3owwwqmI8r+DA9uHAekdFnKcUAaGbdOPWp4JU4pK5k0mp8un0bz09k1ooZ3rf+h0qepV3Fz628d/i7vdpxu2Y8AwHtJa07UTZQCK7lwBgD+g8Dll+OADItsOauG/V3PJq3wU92yqUv+m5xD6HSY2788O6doil3DSi4IazQ/TYZFtpxVc2txWaNbi+GnDw+Ia/Q//8f9GvXMEgmW3XHqkXwmcGnhSwvTT+nyzhO4NGbLvNI9uKvJsJ1dilo+E01xjeanyaNlNC6rybCdHU/W79eoZ5ZIsBxcjFjQipfR2vhsYQFFVonuhMClM1UxLpT2lP0Tttbn9RYN00/fVTStrmCV6IQ0qopxobz3krhGE837NeopDwaWlxq24RCeWr0dEnayN9eta7Y0+leBSxciV9ulYErKYcbiMO91cUB2xUEj99QCtjQS0miyXk2NmLHg1mh+muy6PH1Xo57yYGBpzR9eZuc2eKHryCu18dnvK5jW+je17IMi1yWt8EX5s8mH9pTdYNmgXOiW/ayaGW3M9gExjW4uVlej914S02j7wL0a9aCBmbvDslZF2jLoumVP53nojlX/56XRnhr5OwXTyYWkNUeXsvt4r9Mt+yk1M9oYVv2fl8Zfv1RdjW4timn08MC9GvWcgVnBOcHrqCczm6OR4a1RE/dCfye2FOUtX2qyQH7ecGtUZBKdLCbrYhpNNO9q1LMGhgUURdfrBgBcq43P/qnkad0Da4rGta2etMI31c0oX5JWKLKUPalgKuvCmqJxaXRzsXc0urmYTaOeNTCscv1IlgQi3bJfMf10VmGil897QdIK/0rNVPInaYXnWbdBHkYNx8uzqBO3RrcWe0ejW4tiGg2NLWvUswYGlt3wOA7IvoxZiku7UobjHdStYWn9bFivaF53/3QvdUpkRzSeYTt4PHxb0ZTugfWK5tZIZafEvLk8nU2jnjYwsPwQtyWk0A8aDjlXGw+56s5swhOcn0+qXrB8LSJXa/LGywyHPK5uRvfArZHKkgtFMVnn12jv2LJGPW9gYNnIXGW1SrImO9VNP/216acXDMfbn2Ug3bJ5g8hZa3iUFnZeiecNmUsAfvsAatSBnVfi1qgvDAwsG5mLcUBkRPaN5TgAmTH99DNW+4QbXgPDylz2JGzZx7OM3alwOl/yMKeBYWUuexK27OPWqG8MDOOs5KLIdH1+gXo0pp/ybmXyBip7Zl2/Djy/X15b1ajRvXBr1FcGJg4aSRyQPYLboxtBvZgrpp9eN/30Um18dtJwvEOG4z2+QVGrhzjv8aGEeZaWOCBc+Ramn9rqZvMlqNEK5qf5NJpopnZZG3ErY3nnonHM9FNd5KzFJlC3cKdu2XXduvv8G87Syixa9QbgaWIViR5onGimdQB4ji3tYgB4mwXtMjM05g3uHSPPr/Ao5uanyWnBg30fc36e/oGFlyTsfNFuptlqT+Vr7N+5NKrKgcYMcGvUdwamQ+RqRwzHe8NwyF8CQB67EmYG157LIGwfGN6yfcD+4d4xcniNLNTRiWZ6dX6anLm1GP4VqwXCxfaB4a8/+1r4CvPcVm7d29Tg7B0jp997yf7xrcW52xzD8n45hfqMM6NIDe5TAPCAyBjr0LMB3hVwa9RXS6TVxEFjIQ7I7yhuViUDLtd7+4D9LP2Sb5Divpv+76sPpnXLs6+FrwPA06uMSwfqKbnPvhZyZUHHQYP37Bh38iMzLtcA4Khk4wK9vjyC5UAvt0Z9bWBg+cGOI1fblbTC4wIZi3nBFTzcO0a6Kkjd7edWwlLnv9vFR492sjk54Pk9uWMwe8fIf+G9hoNeD/B24NKo7w1Mh/bUyBsAsEPgcFcedO1hsdae3W6vDvK2AmWp890srY29Y+Qo59jKvqTsAJ6javwKeMGy4NIIDcwK2NGCA1mChyrg7HLI+2bn/TxPHKlMBdWVJud10+WwH0EDs4o4aLQjVxuJA7ILAN4ROINRNLyxia4/PzTmSTuLVQCVbKxfddDArEMcNBYiV/sDAHiwYjsEvN5X159nB9943tRlikv0yxKmVKCB2QS6PIlcbR/1aJJW6LMHNVevhiepjCVDfd7lxz/nTZ7iKF+QzE+TNzjHVlaGgaXxK1vGTDRzSfwrA1waoYHpEurRtKdGJlih7QdF6oRkoOtlDPMy3uny4++wz3fNZF17tctypDMriz93Cc8ZI66xL0834gxVDruhTM3hVMKlERoYAZhXMxEH5DfigAzFwdJ27xn20KvI5uQKlr73kv0XrLfNem9s+u+n2Oe4ubkY/mgDI3OHGpf3XrJf5hlToIgU99+ZFbIWaWvTDWUKaCtBIO2g3beZvDJgBZN+QX/ioPHlv9Mvi+EspaE/wZLdjIxBRi73+9bi3O3JuvYCALww0UzfYollHU5nrVny1y+N0N/50YlmeoL10Om8vSP6/0/WtfMCw/KekOZObLu1ONeerGsH2Nb8+5JPZffDEolbIzQwClguctWY2ehtafppyjGksHFixkRJESS2XHpV0nBf4/y8cDxlsq4tDI15u9hZJH2tmNpkXQsnmvloVCG4NUIDUxxf8KSrG443WETTsbzIuwDX5elGcnm6sdkOGpdGQ2PeoEDcqTKIFODCGExxfML5ed7yjZWC08DEkauJ9L3iBTVaAWcBrniyrt1AA1McXF8QwyFD6qZSLKxrA8/vx/vFF4VLo71jvavR0JiYRmhgCiIOCK8rrfIcTaEYztIuHE/tlVwMzPw0atSBHYzl1ggNTHHwPrw100+fVzSXwmDtW7h+L97qdxng1mii2XsasfYtXL9XJ4ETDUxBxEHjQ4GdkFMKm8AVguGQtwSS1HKpvXJ5WkwjtpzoGfaOiWuEBqZYRJK+eiahi9Ur5s0fiQWKU2WhrzUaGhPTqFOcCg1MgcQBeZX3XJPhcNdYKS26ZT8ncFmuTeXnp/k1EqiDU1q2D2TTSJM7HYQX00+vbFDacj0ORK6mKuU9F0w/pS73r9Ypu7keceRq2xROa00mmmIaTdarrdFEU0yjyfpdjdCDKZikFYocwHvXcLxvKphOLujW8AMAcInzwaV8oGhKG3JzUUyjobHqarR9QI5GaGAKJmmFFwUuMwyHvKJgOrlQGw//UMAjoEvKQgzMrUUxjfaOVVejZ18T02h+mqCBKROsbapIXOG7pp9OGk61qsyxnt4vCly6kLTCOQVT2hTWNlVIo4lmOlm1SoBDY+Ia3Vq8VyOMwZQE009nBU/kLsQB2cNOdpcaw/F2Gw65InAp/d0e5KxNLJ2JprhG89NkD2/tnSIYGvN27x0T12h1bWL0YMrDEcHrBgHgoOS5KMFwyAnBS68WbVwYPa/R3jFxjdYqfI4GpiRErkbd8GmRaw2HvG766fO6NVzK0/HUczH99ALrBMlN0gpPyZ8VP5N1cY32jpHXJ5rp89sHyqkR9VwmmuIa3VxcW6OvZp4ZIpPrumX/kcB1vwkA9a2/dfhf4qDxCwXzEsZwvP2GQ4IMxZ1mPn91R0PytLJw/eEBcY0Gfufwv1yeLpdGQ2Pe/r1j2TR669DaGqEHUyJYhuphVnZShFdMP31Xt4ZFe2BLQ7eGHzD91DMcIvTGZ5yJA/KMxGllhmWoZtJoopm+u32geI22Dww/MNFMvb1j2TSan15fIwzylhBqJNhDLEobAPZFrlZI8SOWRHdJZJtzBVcjV9sjcVpSoUZChkaT9WI0Ykl0mTWarG+sEXowJaQ9tVScOst5mxoAXDP99EptfPZQXlvZhuOZtfHZSZb9meXBTVgh9dLCCohn1miimV75wWuzh/Layh4a88wfvCZHo/npzTVCD6akMC/guqReQTEAPBO5mpIGcobj7WSnomUUvk4AYE9R3hcPzAuQqtFkXY1GQ2PeTnYqWppG3Xhf6MGUFLYtK2v3hH4RLtClFzvBLGdQxzNMPyUst0VWVf1mFYwL3O1HLVUjuvRiJ5ilMDTmGRPNlLDcFmkadbu0Qw+mxOjW8NbaePjnrO2ILBc6YYWUIla46WO6KtusBALrW7QTAL6mW/Ygq6E7xFnlbDNm2lP2saQ1p6K3lBK2DwxvffY1dRqxwk1LGnVKIKwH61u0pNH2AXuQ1dCVrtF7L9nHbi12pxEamApg+kt9fK5IfIDXI1qjn3RNcv+g9ZiJXO1ADvdRAuu11PMaTdb5NEIDUxFq47P7dcs+rbJ/c0HQt3Wzap7LWvzgtdn9Dw/0rkY8nksHNDAVggV+r9H/LHoukqhMQLdbWOC35zQS3U7HIG+FiFwtbk/ZDmviLproVRauxgGxe8m4AAv8vvdS72g0P03sLLk66MFUFNZhoBRndAQ4E7ma6MHBysA6DFRWo8l6do3Qg6kokau9AQAvZOnRXBAzcUCU9MouG5P16mo0Py1HIzzsWGHioHEVAN6m6+Qt28zBHHYwRKHr+MtJKzz++as7GklrrupLh665PH1XI+Nr5dfo5mJ4/K1DOxq3FuVohEukHkLCGSYV0PX7SEnquRSOhDNMKljSaK16LllBA9NjGI43qFv2s7plP1XgTgZ9UD+IA/JB0grnktZc6Su55cnQmDe4fcB+9uGB4jWanyYf3FoM524tqtEIDUwPY/opfXhPihYREoA+tITFh5AumGgWoxGLDykHDUwfwNL8v2045HFWvnGnhDdnzBqcf8KOHHyYc8fFnoKl+X9775gajdiRgw83O24gGzQwfYzppzY7APcYO2y33mG4BVa/pNOruRm5GhqTHJhoims0WS9eo/8fAAD//7BDnqfZ2hPbAAAAAElFTkSuQmCC;fontStyle=1" vertex="1" parent="1">
          <mxGeometry x="720" y="210" width="90" height="90" as="geometry" />
        </mxCell>
        <mxCell id="MWWr7V7YPQYtdsiXqIRb-16" value="Container Registry" style="shape=image;verticalLabelPosition=bottom;labelBackgroundColor=default;verticalAlign=top;aspect=fixed;imageAspect=0;image=data:image/png,iVBORw0KGgoAAAANSUhEUgAAAt4AAAE0CAYAAAAbozQmAAAK3WlDQ1BJQ0MgUHJvZmlsZQAASImVlwdUU2kWgP/30kNCSwhFSuhNkE4AKSG00KWDqIQkkFBiSEHFhsrgCI4oKiJYRnRURMFGERtiwTYo9j4gg4CyDhZsqNkHLGFm9uzu2Zvz537nvvvf8s7/n3MfAORwjlicA6sDkCuSSWKC/elJySl03O8AC7THfy4crlTMjI4OB4hM6r/Kh3sAGtO37cZi/fvz/yqaPL6UCwCUinA6T8rNRbgNWcNcsUQGAOowYjddIBOP8R2EqRKkQIQHxjhzgr+Ocfo4o9XHfeJiWAibAYAncTiSTABIDoidns/NROKQohF2EPGEIoQLEfbhCjg8hJG8YHpu7vwxHkLYCvEXA0CmIsxI/1PMzL/ET1fG53AylTzR17jgA4RScQ5n0f/5av635ObIJ3NYIIskkITEIFoHeX8PsueHKVmUHhk1yULeuP84C+Qh8ZPMlbJSJpnHCQhT7s2JDJ/kDGEQWxlHxo6bZL40MHaSJfNjlLkyJCzmJHMkU3nl2fFKu4DPVsYvEMQlTnK+MCFykqXZsWFTPiylXSKPUdbPFwX7T+UNUvaeK/1Tv0K2cq9MEBei7J0zVT9fxJyKKU1S1sbjBwRO+cQr/cUyf2UucU600p+fE6y0S/NjlXtlyOGc2hutfIdZnNDoSQbhIBjQQTzIATIgARwQBIRABPgy/kLZWDOs+eJFEmGmQEZnIjeOT2eLuPbT6U4OTsjJG7u/E0fiHW38XkK0q1O2VbUAeJ9QKBQnp2yhNwE4kgYAsXHKZjUHAPV+AC6f4sol+RM29NgfBhCBGqACXWAITIEVsANOwA14AT8QCEJBFIgDyWAu4AIByEUqXwCWgBWgGJSC9WAzqAI7wW6wHxwCR0EzOAXOgUvgGrgJ7oLHoBv0gVdgGHwAoxAE4SAyRIF0ISPIHLKFnCAG5AMFQuFQDJQMpUGZkAiSQ0ugVVApVA5VQbugWugIdAI6B12BuqCHUA80CL2FvsAomARTYQPYAp4BM2AmHAbHwXPgTDgPLoCL4HVwJVwDH4Sb4HPwNfgu3A2/gkdQAKWCoqGMUXYoBoqFikKloDJQEtQyVAmqAlWDqke1ojpQt1HdqCHUZzQWTUHT0XZoL3QIOh7NReehl6HXoqvQ+9FN6Avo2+ge9DD6O4aM0cfYYjwxbEwSJhOzAFOMqcDsxTRiLmLuYvowH7BYLA1riXXHhmCTsVnYxdi12O3YBmwbtgvbix3B4XC6OFucNy4Kx8HJcMW4rbiDuLO4W7g+3Ce8Ct4I74QPwqfgRfiV+Ar8AfwZ/C18P36UoE4wJ3gSogg8wiJCGWEPoZVwg9BHGCVqEC2J3sQ4YhZxBbGSWE+8SHxCfKeiomKi4qEyS0WoUqhSqXJY5bJKj8pnkibJhsQipZLkpHWkfaQ20kPSOzKZbEH2I6eQZeR15FryefIz8idViqq9KluVp7pctVq1SfWW6ms1gpq5GlNtrlqBWoXaMbUbakPqBHULdZY6R32ZerX6CfX76iMaFA1HjSiNXI21Ggc0rmgMaOI0LTQDNXmaRZq7Nc9r9lJQFFMKi8KlrKLsoVyk9FGxVEsqm5pFLaUeonZSh7U0tVy0ErQWalVrndbqpqFoFjQ2LYdWRjtKu0f7om2gzdTma6/Rrte+pf1RZ5qOnw5fp0SnQeeuzhddum6gbrbuBt1m3ad6aD0bvVl6C/R26F3UG5pGneY1jTutZNrRaY/0YX0b/Rj9xfq79a/rjxgYGgQbiA22Gpw3GDKkGfoZZhluMjxjOGhEMfIxEhptMjpr9JKuRWfSc+iV9Av0YWN94xBjufEu407jURNLk3iTlSYNJk9NiaYM0wzTTabtpsNmRmYRZkvM6swemRPMGeYC8y3mHeYfLSwtEi1WWzRbDFjqWLItCyzrLJ9Yka18rfKsaqzuWGOtGdbZ1tutb9rANq42Aptqmxu2sK2brdB2u23XdMx0j+mi6TXT79uR7Jh2+XZ1dj32NPtw+5X2zfavZ5jNSJmxYUbHjO8Org45DnscHjtqOoY6rnRsdXzrZOPEdap2uuNMdg5yXu7c4vzGxdaF77LD5YErxTXCdbVru+s3N3c3iVu926C7mXua+zb3+wwqI5qxlnHZA+Ph77Hc45THZ083T5nnUc8/vOy8sr0OeA3MtJzJn7lnZq+3iTfHe5d3tw/dJ83nZ59uX2Nfjm+N73M/Uz+e316/fqY1M4t5kPna38Ff4t/o/5HlyVrKagtABQQHlAR0BmoGxgdWBT4LMgnKDKoLGg52DV4c3BaCCQkL2RByn23A5rJr2cOh7qFLQy+EkcJiw6rCnofbhEvCWyPgiNCIjRFPIs0jRZHNUSCKHbUx6mm0ZXRe9MlZ2FnRs6pnvYhxjFkS0xFLiZ0XeyD2Q5x/XFnc43ireHl8e4JaQmpCbcLHxIDE8sTupBlJS5OuJeslC5NbUnApCSl7U0ZmB87ePLsv1TW1OPXeHMs5C+dcmas3N2fu6Xlq8zjzjqVh0hLTDqR95URxajgj6ez0benDXBZ3C/cVz4+3iTfI9+aX8/szvDPKMwYyvTM3Zg4KfAUVgiEhS1glfJMVkrUz62N2VPa+bEVOYk5DLj43LfeESFOULbow33D+wvldYltxsbg7zzNvc96wJEyyVwpJ50hbZFRkULout5L/IO/J98mvzv+0IGHBsYUaC0ULry+yWbRmUX9BUMEvi9GLuYvblxgvWbGkZylz6a5l0LL0Ze3LTZcXLe8rDC7cv4K4InvFrysdVpavfL8qcVVrkUFRYVHvD8E/1BWrFkuK76/2Wr3zR/SPwh871ziv2brmewmv5GqpQ2lF6de13LVXf3L8qfInxbqMdZ1lbmU71mPXi9bf2+C7YX+5RnlBee/GiI1Nm+ibSja93zxv85UKl4qdW4hb5Fu6K8MrW7aabV2/9WuVoOputX91wzb9bWu2fdzO235rh9+O+p0GO0t3fvlZ+PODXcG7mmosaip2Y3fn736xJ2FPxy+MX2r36u0t3fttn2hf9/6Y/Rdq3WtrD+gfKKuD6+R1gwdTD948FHCopd6uflcDraH0MDgsP/zySNqRe0fDjrYfYxyrP25+fFsjpbGkCWpa1DTcLGjubklu6ToReqK91au18aT9yX2njE9Vn9Y6XXaGeKbojOJswdmRNnHb0LnMc73t89ofn086f+fCrAudF8MuXr4UdOl8B7Pj7GXvy6eueF45cZVxtfma27Wm667XG391/bWx062z6Yb7jZabHjdbu2Z2nbnle+vc7YDbl+6w71y7G3m36178vQf3U+93P+A9GHiY8/DNo/xHo48Ln2CelDxVf1rxTP9ZzW/WvzV0u3Wf7gnouf489vnjXm7vq9+lv3/tK3pBflHRb9RfO+A0cGowaPDmy9kv+16JX40OFf9D4x/bXlu9Pv6H3x/Xh5OG+95I3ijern2n+27fe5f37SPRI88+5H4Y/VjySffT/s+Mzx1fEr/0jy74ivta+c36W+v3sO9PFLkKhZgj4YyPAihkwRkZALzdh8zHyQBQkBmCOHtivh4XaOKbYJzAf+KJGXxc3ACoR9TYaMRqA+AwsiwKAVDzA2BsLIrzA7Czs3L9S6QZzk4TsUjIdIn5pFC8MwAA1wrAN4lCMbpdofi2Byn2IQBteRNz/ZgYIt8YszUA2uP4nXeyMvA3mZj5/9Tj3zUYq8AF/F3/E3YAIACiQRIdAAAAimVYSWZNTQAqAAAACAAEARoABQAAAAEAAAA+ARsABQAAAAEAAABGASgAAwAAAAEAAgAAh2kABAAAAAEAAABOAAAAAAAAAJAAAAABAAAAkAAAAAEAA5KGAAcAAAASAAAAeKACAAQAAAABAAAC3qADAAQAAAABAAABNAAAAABBU0NJSQAAAFNjcmVlbnNob3QRoZlyAAAACXBIWXMAABYlAAAWJQFJUiTwAAAB1mlUWHRYTUw6Y29tLmFkb2JlLnhtcAAAAAAAPHg6eG1wbWV0YSB4bWxuczp4PSJhZG9iZTpuczptZXRhLyIgeDp4bXB0az0iWE1QIENvcmUgNS40LjAiPgogICA8cmRmOlJERiB4bWxuczpyZGY9Imh0dHA6Ly93d3cudzMub3JnLzE5OTkvMDIvMjItcmRmLXN5bnRheC1ucyMiPgogICAgICA8cmRmOkRlc2NyaXB0aW9uIHJkZjphYm91dD0iIgogICAgICAgICAgICB4bWxuczpleGlmPSJodHRwOi8vbnMuYWRvYmUuY29tL2V4aWYvMS4wLyI+CiAgICAgICAgIDxleGlmOlBpeGVsWERpbWVuc2lvbj43MzQ8L2V4aWY6UGl4ZWxYRGltZW5zaW9uPgogICAgICAgICA8ZXhpZjpVc2VyQ29tbWVudD5TY3JlZW5zaG90PC9leGlmOlVzZXJDb21tZW50PgogICAgICAgICA8ZXhpZjpQaXhlbFlEaW1lbnNpb24+MzA4PC9leGlmOlBpeGVsWURpbWVuc2lvbj4KICAgICAgPC9yZGY6RGVzY3JpcHRpb24+CiAgIDwvcmRmOlJERj4KPC94OnhtcG1ldGE+CjEVv5QAAAAcaURPVAAAAAIAAAAAAAAAmgAAACgAAACaAAAAmgAAFf4NQfTHAAAVyklEQVR4AezdT4wcV50H8PKfjHE8xvY6a+PVRhvZIgIJspKzF2cP5mJz2D2A97JIBk5IsNeEc8KZ5Bqi5bQYiRvsAVbCvsSXeA9rJEIk2ESJQFgYRxsc4/G/weNs/drpmZpydXdVd/Xrrp5PSZa7aqrrvfd5r6u/VV1dve30v//ho8xEgAABAgQIECBAgMBUBbYJ3lP1tXECBAgQIECAAAECPQHB20AgQIAAAQIECBAgkEBA8E6ArAgCBAgQIECAAAECgrcxQIAAAQIECBAgQCCBgOCdAFkRBAgQIECAAAECBARvY4AAAQIECBAgQIBAAgHBOwGyIggQIECAAAECBAgI3sYAAQIECBAgQIAAgQQCgncCZEUQIECAAAECBAgQELyNAQIECBAgQIAAAQIJBATvBMiKIECAAAECBAgQICB4GwMECBAgQIAAAQIEEggI3gmQFUGAAAECBAgQIEBA8DYGCBAgQIAAAQIECCQQELwTICuCAAECBAgQIECAgOBtDBAgQIAAAQIECBBIICB4J0BWBAECBAgQIECAAAHB2xggQIAAAQIECBAgkEBA8E6ArAgCBAgQIECAAAECgrcxQIAAAQIECBAgQCCBgOCdAFkRBAgQIECAAAECBARvY4AAAQIECBAgQIBAAgHBOwGyIggQIECAAAECBAgI3sYAAQIECBAgQIAAgQQCgncCZEUQIECAAAECBAgQELyNAQIECBAgQIAAAQIJBATvBMiKIECAAAECBAgQICB4GwMECBAgQIAAAQIEEggI3gmQFUGAAAECBAgQIEBA8DYGCBAgQIAAAQIECCQQELwTICuCAAECBAgQIECAgOBtDBAgQIAAAQIECBBIICB4J0BWBAECBAgQIECAAAHB2xggQIAAAQIECBAgkEBA8E6ArAgCBAgQIECAAAECgrcxQIAAAQIECBAgQCCBgOCdAFkRBAgQIECAAAECBARvY4AAAQIECBAgQIBAAgHBOwGyIggQIECAAAECBAgI3sYAAQIECBAgQIAAgQQCgncCZEUQIECAAAECBAgQELyNAQIECBAgQIAAAQIJBATvBMiKIECAAAECBAgQICB4GwMECBAgQIAAAQIEEggI3gmQFUGAAAECBAgQIEBA8DYGCBAgQIAAAQIECCQQELwTICuCAAECBAgQIECAgOBtDBAgQIAAAQIECBBIICB4J0BWBAECBAgQIECAAAHB2xggQIAAAQIECBAgkEBA8E6ArAgCBAgQIECAAAECgrcxQIAAAQIECBAgQCCBgOCdAFkRBAgQIECAAAECBARvY4AAAQIECBAgQIBAAgHBOwGyIggQIECAAAECBAgI3sYAAQIECBAgQIAAgQQCgncCZEUQIECAAAECBAgQELyNAQIECBAgQIAAAQIJBATvBMiKIECAAAECBAgQICB4GwMECBAgQIAAAQIEEggI3gmQFUGAAAECBAgQIEBA8DYGCBAgQIAAAQIECCQQELwTICuCAAECBAgQIECAgOBtDBAgQIAAAQIECBBIICB4J0BWBAECBAgQIECAAAHB2xggQIAAAQIECBAgkEBA8E6ArAgCBAgQIECAAAECgrcxQIAAAQIECBAgQCCBgOCdAFkRBAgQIECAAAECBARvY4AAAQIECBAgQIBAAgHBOwGyIggQIECAAAECBAgI3sYAAQIECBAgQIAAgQQCgncCZEUQIECAAAECBAgQELyNAQIECBAgQIAAAQIJBATvBMiKIECAAAECBAgQICB4GwMECBAgQIAAAQIEEggI3gmQFUGAAAECBAgQIEBA8DYGCBAgQIAAAQIECCQQELwTICuCAAECBAgQIECAgOBtDBAgQIAAAQIECBBIICB4J0BWBAECBAgQIECAAAHB2xggQIAAAQIECBAgkEBA8E6ArAgCBAgQIECAAAECgrcxQIAAAQIECBAgQCCBgOCdAFkRBAgQIECAAAECBARvY4AAAQIECBAgQIBAAgHBOwGyIggQIECAAAECBAgI3sYAAQIECBAgQIAAgQQCgncCZEUQIECAAAECBAgQELyNAQIECBAgQIAAAQIJBATvBMjTKuLw8o7s0N4drWz+V1dXW9mOjRAgQIAAAQIECFQLCN7VLp1Y+tVn92Znjy+3Utcvfv9qK9uxEQIECBAgQIAAgWoBwbvapRNLBe9OdJNKEiBAgAABAgR6AoJ3hweC4N3hzlN1AgQIECBAYMsJCN4d7nLBu8Odp+oECBAgQIDAlhMQvDvc5YJ3hztP1QkQIECAAIEtJyB4d7jLBe8Od56qEyBAgAABAltOQPDucJcL3h3uPFUnQIAAAQIEtpyA4N3hLhe8O9x5qk6AAAECBAhsOQHBu8NdLnh3uPNUnQABAgQIENhyAoJ3h7tc8O5w56k6AQIECBAgsOUEBO8Od7ng3eHOU3UCBAgQIEBgywkI3h3ucsG7w52n6gQIECBAgMCWExC8O9zlgneHO0/VCRAgQIAAgS0nIHh3uMsF7w53nqoTIECAAAECW05A8O5wlwveHe48VSdAgAABAgS2nIDg3eEuF7w73HmqToAAAQIECGw5AcF7y3W5BhMgQIAAAQIECMxCQPCehboyCRAgQIAAAQIEtpyA4L3lulyDCRAgQIAAAQIEZiEgeJfUTz+9Ozu0vLO0tPnsm1fvZW9eXV1/4tnje9cfT/Lgwju3s2s313qbeObIUvbMkV2TbG79uT/8xc31xx4QIECAAAECBAi0LyB4l0y/+88H8zC7VFrafPaHv1jJzl3eCLM//8aR5hupeMa3f/rBeqD35coKIIsIECBAgAABAnMqIHiXOkbwLoGYJUCAAAECBAgQaEVA8C4xCt4lELMECBAgQIAAAQKtCAjeJUbBuwQyR7OH9+5Yv759jqqlKgQIECBAgACBWgKCd4lJ8C6BzMlsfOn1myf29a6b/8lbt+akVqpBgAABAgQIEKgvIHiXrATvEsgczMaZ7u+d+etsz9K2Xm3ibjEvX/zQ2e856BtVIECAAAECBOoLCN4lK8G7BDIHs1V9cmv1o+y1Szey82/fmYMaqgIBAgQIECBAYLSA4F0yqgp5pVVqzbqdYC2mkSvFJSbPn9w/cL1zl1cy9yAfyOMPBAgQIECAwBwJCN6lzhC8SyAznF1e2p794CuH1i8xGVSVC/lZ77j0xESAAAECBAgQmGcBwbvUO4J3CWSGs9868cnsS5/bU6sGwnctJisRIECAAAECMxQQvEv4gncJZEaz8YXKH/zroUalC9+NuKxMgAABAgQIJBYQvEvggncJZEazX312b3b2+HLj0oXvxmSeQIAAAQIECCQSELxL0IJ3CWRGsz/++qdGXts9qGqvXfpz5l7fg3QsJ0CAAAECBGYlIHiX5AXvEsgMZp976hPZi6cOTFTyv/34/7J3P/jLRNvwZAIECBAgQIBAmwKCd0lT8C6BzGD2hS/sz059evdEJUfojvBtIkCAAAECBAjMi4DgXeoJwbsEMoPZSS4zKVa3fC/14t88Hixw7OBj2dGDO3srvPfBfZ8cDKbq1F/i9pzRr88c2ZW9efVeFn27svqgU21QWQIECHRdQPDueg8uWP0j9L165olWWhW/bvm1H70vXNTUjGD2/Ml9WVzqU5ze+O3d7JWLNzgWUTr2OPr0hfyHqPYsbVuv+bWVtezl1z/MQ/jq+jIPCExD4MDu7dnSjm1Z7JMd7E1DeLbbPLy8o1eB63ceZKtrH822Mh0oXfDuQCdtpSqO+qXKphbOetcXG/ZpT4Szb//0g/obs+bcCDxzZCmLvh00+T7EIBnLJxX4zKHHep+wLD3MZb3NRTiLg/n439RdgTiQin1L9HFx+v2NtexS3r8CeFFl82PBe7OHuRkLjHsbwUHVdtZ7kMzm5XW+0OpuMZvNujI36tKtS7+7m710/npXmqOeHRGIQPYPf7ursrara1n2X7++7ex3pU43Fp48tjt7cl/hiKpQ7Tio+lnev6Zqgc4G7zgzeurpx6tb1XBp8Uxe/Fri0fxyh0mnC2/fzs7nP2Xen4adceqvU+f/CD/9u3V0zaBO+4adda3z/Kp1Xsl/Tr7YF1XrbPVldQ54/vOtW9n38vFn6o5A3R+i+uL3r3anUWo69wJxNjR+dbh4prtc6Sv5mdHX3914jyz/3fz8CsR+ZdQNEP7nyr3sN++7s1hVL3Y2eNcJClUNrlpWfNNpK/iVL3H4+TeOVBXdeFkcJPSvyeyaQZ3GtuVfLOvCO3d617IWl3m8WaDOWHK5yWazLsyNusyk34biPrC/zP8ExhWoE8xi2/E+aeqeQOxX4t+wKb5DEj9oZ3pUQPDOTYpvOm0FP8H74U713OWbj466IUvaOkApFhGXm5z5jz8WF3lcEhC8SyALMit4L0hHdqwZdYJZNEnw7ljHflzdU/kVB/0vVA5qgeA9SCbLBO/cRvBOYzB4GG78ZRrBO7buC2QbxlWPBO8qle4vE7y734ddbIHg3cVeq19nwbu+VdWagneuIninMagagOVl0wre5y6v9O5dHLcr3JPfNm9517YsHhenuHZ+5d7DWyHF41v5PY77l/UU11vEx4L3IvZq1vs4OD7FGzUV94Gj1vV3AqMEBO9RQt3+u+A9Wf8J3rlf8U3HpSZZ79ZjseOcdCpfblNne9MK3nXKHrROhPAI4HELrEUN4oL3oN7v9nJnvLvdf12tveDd1Z6rV2/Bu57ToLUE71xG8E5jMGgQFpfPY/Au1i+uW4vr1hftSyOCd7GXF+ex4L04fdmllgjeXeqt5nUVvJubFZ8heOcagncag+LAG/S4rU8cBm2/reURwOPWjnEWfBEmwXsRevHRNgjej5pYMn0BwXv6xrMsQfCeTF/wzv0E7zQGdYbqS6cPZCf+bvNPltd53qzWWZSfUxe8ZzWCpluu4D1dX1uvFhC8q10WZangPVlPCt65n+CdxqDOUK0TAOtsJ+U6cbvCuL96/4eNUpbdVll13N3Huy3tdNsRvNNZK2lDQPDesFjER4L3ZL0qeOd+gncagzpDtW5QqLOtVOssws/SC96pRkvacuq+nor7wLQ1VNoiCgjei9irG20SvDcsxnkkeOdqxTedtq4xLt/Ro60vDS76L1fGIG7LapwXxDjPKff1ONuY9XME71n3wHTKF7yn42qrwwUE7+E+Xf+r4D1ZDwreuZ/gncag7lB94Qv7s1Of3l139ZmutwhnuwNQ8J7pMJpa4YL31GhteIiA4D0EZwH+JHhP1omCd+4neKcxqDtUn3vqE9mLpw7UXX2m6y3C2e4AFLxnOoymVrjgPTVaGx4iIHgPwVmAPwnek3Wi4J37Cd5pDJoM1XNfOZQdWt7R5CnJ112Us90BJ3gnHz5JChS8kzArpCQgeJdAFmxW8J6sQwXv3E/wTmPQZKiefnp39vzJ/U2eknzd71y47j7eydUV2ERA8G6iZd22BATvtiTnczuC92T90tngHcHs1NOPT9b6j58dX1jsT9868cns6MHH+rNj/3/h7dvZ+bfvrD8/vrTZxhQ/2tK/bV3XDJq2f57Pel/63d3spfPXmzZpbtd3xntuu2aiigneE/F58pgCgveYcB15muA9WUd1NnhP1mzPnneB2HF/Mz8IOtbCQVDbbV2kS0z6NoJ3X2Kx/he8F6s/u9KaaQfvA7u3Z39Zy7KV1QddIVmoegrek3Wn4D2Zn2e3KHB4747sufxXK7/8+T3Z4Tm+vrt4S8cWm19rU2EUb2qHl3dmf/83S+vP2bO0LYsDgv70yz+s5vMPsjfyM/PXbubvUCOmeQneD9+wd2WfytsZbe1Pxfat3HuQf+pzv/fJz6+urnbmzTcOIqN9e5a2D+y76Ks/5v+urdzP4geL6vRd36jq/yivzqdtxcvtqrbT1rLlvO1f+tyeXvv7fXo+/3TwQuHTwbbKqtpOf3wt79q26aA+xlrfuj++2uqDqnqUl4XL2WeXe3UKl/fy8f2Tt26tf7pZXr9qPrZx4qldvX3DsYM7s+Vd23urFdsWC/rti09Op/X6eei8sX+qqm8siy+nD5vi0+e/ykP2gcc/bkvF+8Jqvnu7fufhPi76cCXfD76Xt20WU9R3Oe+/eI1HnaIfV9c29suzqFOU2a/X0o5tvf3lpPVqO3g/uX9nFgdT4RavzahnzJeneI/7050H2fXba7nvg95rdh58y/UcNS94jxLy96kIxJvE0fzNIcJIL5DkIXKew3Yf4ZWLH266hKi/fJr/h0/s6OJuL+MYXVtZy97Mg3gEnAhzVdOsgnc/LMQBV7RvnCkCRAS3ugcZ45Qx7nNO5O36x7xd0bYIVE2n6Ls3fnu3929Q3w3b5jwF76hL3Cq0agxH/72cv7bantoYX9EH5//3Tnbhndvr4bzNesbrOw6OqsbHqP1NhOov5wcyYRvbGWeK10+E/DYPfiYJ3hG4oi0RFpc2jr0bNS3C+O8/vJ/95v3VXkBr9OQxVo6gePLYo/vnqEdclhh1mcUUlrHvKYfYqNflK/caHdgV699G8I7X5mcOPZZF6K4a+8XyBj3u9/OVG/dnZjyobsOWz0XwbvNa5WGN9bfZCsSbRNWb7mxrVb/0UW+C9bdUb80IbWfys//xJtbWFCHi3OWbj7zJpg7e/cBwOv+exrg73SqTCA9NzxRWbWfSZfHGFKZtjvcI3tF3TQJ4jJ1Zn/GON9g4mxsBcdgU31+JvmtjijLjzHq8ftocX+P0wbD2RD1f/ZcnBo6TOMMXn7D1v9fT31b0a4yvtvcN38m/t1Iuq19mk/+jXnXqVjzjHQEsnlMOiU3KrVo3DKNNTV43VdsZtmxUEP3Zr28nOQAo1/GfPvv4UM9x6zWqvVGPeK+pOpiLA6rP5oF7Gv38y3wfOatPO8r2w+bnInjHG0OdF+mwhvgbgWkJxI77pfN/muqOu1j3ONsT17dP8zURO8UIOnE2NaaUwfvs8b15ecvFJrf+OHb40b7U14BGnw06q9tWIyNERNvqBImozyyDd5xteyG/O1Gd8Btj8ms/en9ipgj4MZ7rlDluYfG6ee2//zzxGfDwGfWbBcXfCkixb2jjUroYd3X2X9G2OFt8Ind4ct+Yp7drdmJcmnDx3but7xPiJMKoH3y7cmMte/3djZst1KzyRKvFgczJo8M/RRy3XuME70GfCkzUyIonx/t1WEd/z+s0F8H71TNPjP0x2bzCqtdiCMTHhC+/fqP1nfUgnRShtFh2BIhXLt7oXVd/9vjwMBxBr3gHoOJ26jyO0PDi6QMDz+7V2UaTdWIHHJcv9A8umjy36bpx5jIOluINKdV07vJKfo3szaHFzSp4h8fzJ/c1vnxokmvNY3xFmfF/iinG12uXbkx06VmTA95U+4Y2DoDqBu8L79zpfa9nmgdJxbEw6SUWxW31H9dpa4yVtj7N6Zc76v869YpwGme9m05Ng3ccBMQnuONeOtS0ftPo56Z1GLb+/wMAAP//AiL8uAAAJ5RJREFU7Z1NzB1Xecev46/4Ix92qBOioCBHIJBCLIUusLtINnYXsAhBKiAloLaqlLAlZYvZEncLUbsiRmpBIkFVQKq9iTf2hlQyIAWoYgUlSoiBxMbOh9/YTud/3x53cj0fzzkzZ2aee38j2XPfe2fOec7vOTPzP888c2bDoX997YPZyMt//dNHR7aA6iHwYQJnL16Zff/UX2YnX37vwz9k+mvnlhtm3z60a3bfR7dkqqG+2DeKtr70p/dnBz5+Y/1GxS+/fH1t9s/P/blxm7ofD31y2+ybD9xa93PW75/99duzpwpf5lruuW1z0bZbZloPvcgnR06cm71x4Upl1epPT37htsrfyl/+7b+9Xv6z02f1oycKX+/YsiG6nFQ71L8e239LUp3RRi7scPx3787718W1qwu/tP/56Gdvmj1y/87GDXV8Xrx0ddD+9Y1n/jR76c/vN9rV9KP63Rjnsiabyr+9cv7K7FRxbl+70l3+WNv6w/++WDYh++ecdh0sjrfbd25sbIP67YmX3pvtL84HH7uledvGgjr8+NKfL89O/X6Ya3iMmRsQ3jG42HbZCUjIHP/dO7NjxcV0qGVM4RbTxlTh/dj+m2dfvHdHTFW9byvbv3PsrVmKOGoyRr6TsE0RmU3lxvz29toHs8ef+WOl+NbFdyjhfftNG2ePfe7m1gFcXdvOFBdJtSN2GXNQF2yVSP3Wc29G9y+L8A51DLnWAFvHTOpiFX2p5fex31vvXp397MV3OhdlbesqCu8tGzfMdm27oTPjLgXIzxoc9zHI6mJHeV+Ed5kGn1eSgC4wimyfLEbGdZHDXGCmINysbUsR3op8KjoyhSVVHNXZPiXfqW2KUi4uQwlvDawkIrsMQFLE3uPFoO6hkQd1gXlK/5qq8P7af5ztdC60itHAbqz1b86+P/vFq5c6VW9t66oJ705Qe955rbgh+PNikNV34CXVzNGF9+ZiRPTcP9yRaj/7QaCSgKKAuhAuLmeK7y4Wv71x4XLxu/5dv83iPrn+VnrJ01/d00ms5LKtqtxY4T0lURTaowHWd46/Ff5MXk9JdIdGVAnX3MJbUW4NrlRP6qJj9alT56PvMk0h0r3Y5roB0OJ24e8pCu/Y4zy0pby2itHyPmN9PnHmvdkr5y4nV29tK8I7DvH7hVhWlLrLYL5cY193OMplpn4eXXhv3bRh9p9/j/BOdSD7VRP4lyLvdch0kWor6r+V6P7uF3Z3ytvUrXmN4JVLFyL1QQCFdb0F8b/EXJC7iqLywEn1arnntk3FSfiG2R2F2NvTkl/Y1LqfFjnfyt9PXSQ2v//wX3W6IATfhYGgbJHP1C/2Fu1MWZTHrnz28qIyc6Wa9BHlVv7lkefPR0eilEf+7YO7yk2N/qx+VT52VIB4de1fuq2tvHvLkkt4h2Mm9K+dRb793v97BqHp3KDjTgO4rgEJ1dFUj4WNtpH4euX85fn5LUQrw7lOKQxbCv2gdAblG3/sVp0f4p8r6BoNtbYV4V3vdfW7F8+uzSSO1y5/MF+Xt9Z5ccfWdV9/as/m1vzy8r7lz33c4SiXl/oZ4Z1Kjv0mS0AH8cM/+MNk7ZNhqSkYEmzHihz0trQYnagOfHzrPN92/93ND01aQVmFt6LB33v4I9Zir20nv6ld87SflodaVYfEvQRYigjvMjBT21R/7CJ+en7g5MuXGoVm8N3BT26PEi+K5C8+DCxR0Lfw7ivKLXG6aK+FaZeBz/H/eXd27LfvtOYvq45DBX8NLlLEXNUgqKptfQpvDWLWj532/nXfnVvmx86B4twQ2qf9j75wsbPoVjutYrSKib7TgEjnutgBgMS3/u3dHTd47RINtbYV4X29t18tHnKVj2PvOOgcKQGu8/DmyOc2u97huL4V8d+MLrw3FXn3P/tHZjWJdx171BHQCe7oCxfqfh79+5RoXZdZViQilPbRVYBbhbfSZ9qeeF90gqLQuuiHqNbi701/p0ZeU/JYU4SSuKk/ah276KKuOrVuW6pmotB+fQrvR+6/qbCneRaONjtTo9yh3JSBj84Jz/7q7ej+pQv8Fz+zI0mAV6X+hDaEdUp/CvuGdZf+Fcroe20Vo4v1KsJ9+vVLM0Umuyw65z24d1uUKDv1+0vRQl82WtuK8P5/j8rPCiBpwNNl0d0OXU/vipg1RXc4dL0Z82HL0YW3oDOdYJeux75lAoqafu3fz0ZfYMtl5PysC3lsXndfAwldIA4f2n0twhXbTovwjhUSimodPv7mtVSZWJvC9uL62IGbZwc/YX+QU9HPI8/bUgJUjy7mT39lT6iyda2+mJK7XFVwG9e69Jm+hLciS12nTNTg8cmCd8oAJDDRIEuz5FgX9S9F1mMjp4vlp/SvHMdL2a4++1e53D4+W8VouS6JME0/lzL4LpcTPseKMvFcTNUKZTWtrW1FeK9TlJ/7nmXE6oPgR91RkQ1jLQjvschTbxYCdQIkS2UJhcY8cJjjwirxePjg7qQ84jYhEStMu0Y+q/C3CdTFfSxRybCPIsc6wVsW+a6PXNlyXar78WKu6sUccA0gnjr5l0rBon26Rrz7iHJ3uaMRGMQOWnP0ryceLGbpiRjcVaX/hPZoHdtfw745+lcou491rBBSezS1X99RSIlvzapkndIuJeptbSvCezY78+blpPQyS5+Mvcuh82Z4XsBSfp/bILz7pElZoxNISR8YyuhY4VCVOtCHrbJDYmxRwLWV3Sa8Y0SJRNHhYl7tHEvMg51tbQr2KeJrzVuXiKibVzuU12WtC/2+O7fOi1BOb1M0t4vw1r6KLqfks4f29RHlDmXFiNTYuxmhDss6pp8rsqY7cHVLTJtCGbn7V6iny9oqRlVHX2kHdfbqfPf5T283pZ2kCENrW1ddeA8RZda5av/d6+fGuv4Qvh/CnlDX4noSwvtokROa8oDUYmP4e7UJ5LzY9kE25iLb5eE/i606QUl8hwerLPs0idSYQYVu/ysa3Nct5SrbY8SRJeodU16uAVNVO9u+SxHe8uUjRR630jq6LH1Eucv1P/P1O0z9dWr9q+lYjjknBBZT6l/BpsW1VYxqP51X9C/nogcuH9jb/pC58n9/fDruDZPWtq6y8NbgSnc0cp7zQ/9Rzrf14VrZ1DXPPNQbs56E8I65hRvTOLZdHQIeokDWhw5zRoPLPcIqysI+TcI7Jvd2KOGgKf8sUf22AZuE6E++fnvA0Li2zmbRWEiPP1p9HF7Vru01yIh9OLZscl951eUyrXcxhjwPWK9buiOhPl+1xArvqfWvqjbpO6sYlSBTXnXfKSZVdn15305T1Ds2BcHa1lUW3kPOJKL0It3hsASVxppecBLC+/ChXZ1nXKg60PhudQjopDblmUysAmhI4aDeYRUP2rZJeFtnmhjST1bmbekAVtEnwZnyynOxzbVYGXzpB2/0EuXO5V/rNSJX/VX+UU6pdT73uhS4GOGttJ1HG9JWqmwc6zurGB1S+Pz1XVvnU9C1MYmNwFvbqr455JLTLuXNWwfnY6R0WO9w6Hqb8kBtVz9OQnjHnHy6Npj9l4+ADp4pz2Qi4tY+PqRwkF1WYaZt64S3NSI8hp+sA4umKLxV9FlSVsRxyMXqX10crRfSKvtzRLnL9VhmvlL/Gnr+fuvD0nXpJtbzgli0PahZ5jX2Z6vo0+vau04daG2rzlMP3bu9dfPYPG9rW1dVeKc8sNrqJMMGugtriXqPkW4yCeFtjSgZWLPJChLwcPvVKgAVeRwiD67cTawpGXXC2zov+Rgzzlhta+pDltziKUa75WOr8C73h5jPIWKU826TtQ1j9C/rTD516UxW4e0p2h36nfzWtsSmdbSV1/a7Jd0kNkKL8K6nrlSiH0XmzNeXFvdLrjsccVZUbz0J4W09sVY3gW9XmYCXC5IlYjeWeLPmZ9cJb6t4aIoq5+zDFuFc1zarsBr6ToWVV85zq469J4qHZHNPyWXtn5qX9w8Xiiv9wMvDxQt22iJrdXne1mNnjEFFF4xWMfrTXw/zwF1oizVFIiY6bW1rTJnB3i7rnHZZOcbePejS3sV9c93hWKwn5e9JCG8ZbhEmKQ1kn+Um4OH2q1W8NUVdc3rRal+dOLWkYoyRBhCYWWYkqRNGVuE61qAitLFubbW/bv+m7+XTvucqr6rPms5Rte+UvgsPsJZtsgrvKaYxldux+Dmn6FusK+Zvq2CMEclTbWtOu6wch76jsdgX9JBl2xzumtVE6SZDLpMR3tbb3UPCoa5pExhq9o+uFKziZ8yLa5eosCWNpk60d2Vr2d8qbqqEkTXaWrWvxbbc21j7XqodQ4hvS/9KtX/I/aoesOzSN4e0PbaunKIv1pby9tb0A4R3mdr1n63Ce4z86bK1Vjtj/F0uP/XzZIS3JSqV2kj2Wz4CuuBP/YHKQN0qfqouzKGM3GuLuKkTz5YZTXRiy5kH3MTHyr9KPFuE0ZjR/KZ26zdr29vKafpdObHf+Mmfsj2bYOmbTfZN5beqgbWlf8n+qr45lXZV2TFV4Z3DrhxlVjGN/S6nXVMVtIuMcgy0FutI+XsywpsHLFPct7r71M0SMEUi1r495sXVIm7qhLclTcyD8K4a+FiEUR2XKfRFXXzl29yLUnW+9dybWcS3pW/mbl8f5acK77Ge/ejS5pyib2p2rVJbA3svwnuqvpmM8LbmmQbHs15dAlMWOlVesYg37YfwrqLX/Tur+EwVRlPuj9a2d6dcP91k17JXXXhPuX/V+XaqgieHXTnKrOMa831OuyzCO3Z2mJi2Wbe1zuc9dErMZIS3QPLqeGt3Wt3tdFtfLynJPZNCn4R1ArREHb0Kb0t+uIeId9UDkpZB0zKmmmgWjWeKf4cP7ja9/TMcL5pZ5MiJc+HPXtbLIryrpgq19C+Edy/daF5IDjGao8w+WpzTLovwHuOhxUVun9qzeaZ0k7blx6eHeXtqsGNSwntZnl4PcFn3T8BTiklovVV4Vwm/UEbutSVPu24uYoswqts3d7tUfpdUH4swUh1jDppUf91i7Xthf00R+OTz5+YvS9J3uhNpfTtjKKPvqe8s/SvUPdV13YPglv6F8O7PqznEaI4y+2hxTrtylt1H20MZU7VzUsLb+rKLAJX1ahEYU7x1Ia2D3xLxHnNqxC552hZhNKZ4sIgb+bdKPFvPSVVpKl36TF/7Wvue6pNgPvrCxevytO+5bfO8/7bNVV22uc8BsmW6ynLdU/uswczjNQ+fWvrmmMdOKsupCp4cduUoM5V7eb+cduUsu9yGrp91/t67e1NrMSs7q0kgY7ltHbZlvToE9ICRxM3Qb3Xsi7BF2I41sLCKyzoxZb1TVXWrvS++TeVYovl1D7DpAjP1QVNT2632tw0crOWUbelrIGkRp+V6p/JZgvlM8dBp1WAm2GhpG8I70Oq+ziEYrWUO/bIgq10potNatq5pY6aFWlJixni75qQi3jqsmFaw+8ll2UpQDq2EgWZO8LpYnl/QwyiaInHoxSqc68SZda7rOuGes73Wh7brUgH09rOffP32VhOnKo50gbQMHKqi/YuNtqbshP36Om6t9Y7Rv0JbU9cI74up6JL2swrGGDFqLXNoEWq1K6atAbrOqwc/sS38Wbs+cea92SvnLtf+nvsHXZva7tSN8RDo5IS3bmsqQsUCgUCgr8hZKG+MtfV2eZ24zWWzhOX3vvSR2e07N7ZWUSfOrMfsGOLUImzU8Ka3hlpf7lU1HWEr1Mwb9Cm8Zap1kBWa1Yf4tg6exhq4hramrC39c4zjJqUt5X1yir5yPbGfc9hlfYBvaBH64D3bZnfd0n5eTxHeWzZumP3dvh2t+F89f2X2/Evvtm6XYwPr4EDHl/4NuUxOeKvx1gvdkKCoaxwCfT+oNU4r7IJl6Ius5cIvZm12WVPEhhxYaFDx9Ff3tEY81L6mB1utdwTGShWS/XVL38Jb9cTelexjjm/LHSPZ5i3qbTn+2o49tXtqSw6B20cbc9g1VYFnSbMQ0xThrf0s0WRtN3SKjerUYs3vPvX7S4PfTZ+k8LbeWlzHy//LSmCKQiaVtTVqp/KHivDHCNM2QWMVY0OKCIuoEW89/PZoQ4qPNaKvsqYW9c4hvNVOq7+1rZau4ts6+PEW9bb00SGPmXVvdf8/h8DtbtX6m1xlW9sSI0at0d+hp9d75P6dbc2c/x7T1nKBVmGr/qt/Qy5Wn8imMQYGkxTeMYJgSGdS13AEvD9MWUXKmm4i8ZDzFdzBticeuHWmqIhlaXsw0vqApupqSuuw2GLZJmYmDstdFWvEtavAtLQtZptcwlvnaOWO772tfcaAYO/Jl9+bDyrD3zHrmMHPEP0rxvambRHe/nO85d8v79s529ye1TGYyNPx+dC925u63rXfUoW39eU0Sjd7tpgxacjFOvAbejAUGExSeMs4ywkpNIL1chFYRtEtD8WIUwk4pT/kWmJyda13HqziVG3KmXISO3C3RKljzkc5XiKT2g9yCW/ZkyK+u7CxTFsZOLXdoQnbjb229Csi3v15ySrIYsWoNZ/6N2ffn/3i1Uv9NaimJGs0WrvHtrVcpXXAMVS7ZduubTfMPv9p26BDvpBtQy+TFd6xF8+hwVFfHgIaHWtmD6/TBrZRiRGnXURKkx2xqVwWYar6Ysrt46G7qjbqvPHdL+yeKUJqWayDitjzUS7fSTgc+uT2+YttLl66Or+F2xRNyim8xVcpVLEv2NGF/ugLFyzu+dA21raEnXKJb4ka2aI+dvq1tZlmxNFAOWVBeC9HxFt9Yf/d7W9IXLuyPl/+2pUPUrqLaR+dq6zRbhXYRXjrrZB6uNSyDPFwqVJMJLrbZjKRvZpGUOfOnL6o4zJZ4S2DLSeluobxvT8CucTYlEjERL1ld9+pC4/cf1NxXNly/1S/VZhqWy0xD0bL30+dOj87VrxmvI9FF79vH9plmqEl1GcdVGj72PORxLfSHvoYROpi+s0HbpnfNQm2h3VTH7GK1boZa0IdTWtxVzTacrEL5aSK4piot+pKrSfYWV5rkKH0LDFdXFLTWyx9ioj3Iu30v+W7Kv8tlhgrRmNyinOmN8gOpQ8q6mtdYttaLjdG5GvQ8fMX3+nlfFi2ofx5/903FgNiW/rbGLnnwdZJC+/YKFNoFGt/BFZBdAevWHO9w/bK+T5Seo13+D5mLdHw2OdurhRudeXIJ7F3H6xCr1ynog4/rHhjYnmbts9KnZGIiRF/KZHXmIGFbJbvJMqU35y6WAYUdfnTVn90Ed5ql7WeMoOUdKOYh5RDXX0MgDRgluhu6l8p7UF4L0fEW33Nmm6ibV8qXginOyV9L9aZTMr1dhHeKicmrUXXFE0vqMFHn4sGHJ8tou9W0T1mtFvtnrTwloExuajansUfgVUS3fJOyu157acRum7Ra21dVNejRZTb+hBludzUaKF1BopyXeoDz/zq7flry2MixGqXxItlHvJyfanPEUgEp7xnQD47cuJc1FvcYn1XFb23CuKuwltsY1KNtH3qcW8Rqyq/vKT2L/FTfVq3LfKxxHfMYmlLSrkxNuTYVrwszLqKvljbc9ql49XyUplgs3KL5ds+Uh0kPPcXg8OPGebtDvWHdVcfqG7pNMvDpapTke8Xitzq1PSsYHdYK0D7wD03RkX5x8rtDjZPXnjL0NgoU2gc6+kTSBVA029Zs4WxKSfl0hRFVYRT+aVvr63n+YbfJQwVldNaolTrlCU2xWSxji7HrNp2sogG6VXDamt45bBOsJpFY0ex/pviIiOGTRHIRZvC36mCL+zfJRgQfKc2yo7yxUcXbg0g7vvo1qJtit7E+a4q4iqhofSMtqUP4a06LEKybIsYPP7MH6/5uPxb0+fYlJNyWWIvwSP2WpcX+WDv7s2zfXeuC8cYH8i3sW+etfBCeJc91O1zTuEty2Ijzur/4VyX2jLlWOucscUwq0pVHV2Ft8qMHXRonz4GHppZReklMW0f86U+arcWF8JbJ7+UKNN6E/l/qgRWVXQHf1guumHbIdd9+EUnYonvFGGcu62pkfyyXbHzWJf3zfV5CsJbbYtl05SjXsdKgzCJ75jpDOvK6ut7HTcaRMQslnMAwjuGaPO2uYW3cqv18LM1+husfaV4w6Nerf5q8c8SAVf/v+vWjfPBeUw+d6ivvO5DeKs86xs8y3Xrs9JufnN2zZx+ogi7jvtP79kSfX3RQOdnRZ65hfGinX3+7UJ4q8GWE1SfYCgrLwFdTL5z7K2sD1rkbUE/pceKlH5qrS+lD9EdSteAWeJoSuK7D9Ed2hebqx/2y7WuiloPHfEObYtlI/EdO33m1PqXcnYPF+e0mMVyXUN4xxBt3ja38Fbt6peWGU7qLNWdk7feuToXhxKI+rxr+w1FVHfD/J+CGl3FdrnuvoS3yozJcy/boM/K+9bdzXmbi89rlz+Yf1a7Q/t3bd+YlE6j8pXXfex375gFvvbJtbgR3gLQ5fZ1LoCUG0/A8sKS+FL97jEV8d2n6A7emJI46lN0q32KOj3x4C3zW52hvWOt62bVGEt4p0Sk69rQxHRK/UsDh3LqUJPd4TeE9/I8XBl8qnXMNHvl/cb43Kfwlki2Tuc3dFvHeDV8XRtdCe8pnWTrgPJ9PQHd5ulz+rj6mvz9YrkA52xVzjsQOm4VAd1T5C+PseTud2MPnJoGsmMJb/k5VnynRL1T6um7D3bpX5bjnoh3fx4bIuIdrJUA7TMyHcrte92n8JZtqek2fberXN6QL/Ap11v32ZXwViO6PJRWB4Hv8xM4W9w+023Y2IhQfsumU4P6dtuUZTms1Yk35YUmMbaMFR1WFF+zieTud10euIzhWN5Wgk9t08OCdcuYwls2xQZLqtJl6tpW/l7967EDN0fNKlHeP/Vz1/6F8F7OiLf6k/qkxHdsvndqX0zdr2/hLTsU+dZMI7GzTaW2oW4/pZfo4VXlz09pcSe8BS9lurIpQV81W3JGU5eNpfL36l7S0XdbNRh6suP84LE2SaBKbAyR961I8NGO84PHtE8iU74b4oE/Cb7Dx99snQ1E/enpr+xpbUaq4G0tuNggRnx3tWPIwatm/nnqZLcXJFkGbCm54xa/5NxmyMhyTDuGtmtMAaqBueU8m0N4B59YeYft+1wrZ/zES+9N8jkyl8Jbzhn79m6fHWRZy9KBr0hq0yutl7XtXdslAaEBZo70DPlFPskd5a5jkDs6qYGe8oVzR7nr2icx9fBndmTxnQZL8lvM2z6PfnVPoy1DCDvLncq+7FD/0ttZHyr8kGNR/5IPtO66aFDSNmNXSu57V7u67q8Bn2VO65yir6oNmn7ugb03Vv107TtFSX90ut9IfOqMH9eMivgQorxK+ZDwbVr0IKdeMJVzUV94cO+2QSP/Z968PPvFK5dGn72kjqtb4a0GIb7r3Dr+97ooxb4wZHyrp2eBXkpysJiequ0EarFcok2C7dniRTUxL6mxlJ2yjU7Iin4fKOZhtURm2upQBPLYb9/pRRC11WX5Xb774r07e4mA63g6XjyRHyO4g43qO3VzeWsQljKPdig7Zt30gh3ZoekQ+xwsqX9pajfV28cAVv1Lx06fNopf0x1c3dmInaIwxie5ttXg56F7tzcWP8Z8ypb0j1x2SQhrAJoz71u2K/VMM4OoHqW6NC06r/QxgGyqQ7+J+33F3Ph7d9te595WXt3vOo/o5ThTSy1ZtNe18FZjEN+LLh3/7yFyhsdv5bAWSERIoK6/2GOrWaiGE6tOxn0Lhj4J6IK0b/62u61moaqBxGldOF67VFxsLk1iMFHFJAjAmNuuuoAoN1FtUxvDS4Sqyrd8J/H52P5bPtRvxG/o5y7GsiO1f+m4We9ja1n7V5X41h2AI8+fz1qvpe+kbtPW3zWfct+vDrfY2hR9VrRYduUKTCj1RFF3paP1mf8swS2xuXiOb5reT+eYoee0ziXA1RZd6xbbb+kPY2zjXngLGtMMjtF1rq9THX/MW/zXW7S83+gEFnKJ7yhE+e03bZpdvHT12olHtxC7irUx6ekWfIiC77tz69wUnVTVRi1DRGnmFWX4T0I8XHTVzp1bb5j7LbRNUc4cF/7QZ1SnWI7FMLRffj1dDCzGsGOxf5WPHV3Ex7iAi4sGn1r0UpExbOi7u0vk7iveqlh+wDAMKsc8P1XZpUGABlpDDQbKx2M418XwF8cXixfPvHruSu35QkJfAyC1t7zo+nBqxGBFGIBoEHJXwmvu1Ra1Pww2hvJZmWGXz0shvNWBx3iivQv4Zdo3Je90mdpPWyAAAQhAoJ6ABhUSWxrgTEkkyS4telnLmHYpLWTLpg3XBuS7ixfFaLAibRMG4eGlOrIzlqPYh5fQqJxQZr3Hhv1FfhADtVd2Vi0S2mp3+QVDVdt5+G4phHcAbXlCPGzLujsBHQhjPqTXvQWUAAEIQAACEIAABIYjsFTCW9h0W+Xwod3XblMPh3K1aupjKq3VIkZrIQABCEAAAhBYdQJLJ7zlUOXvDTWf7qp1IAluTaU1Zn7eqjGnvRCAAAQgAAEILAeBpRTewTWaqkzpJykPLoQyWK8/xKCUkqlMQ4dPIAABCEAAAhCAgEcCSy285RAl7Q/1JkCPHaDJ5qnN+9xkK79BAAIQgAAEIACBqRNYeuEdHKB5XCXAiX4HIvVrpZNoWiX9Y4EABCAAAQhAAAIQ6IfAyghv4dJUNQc+vnX+trw+3mTWjwumUYrmDj5WvBlPr4+d2lRD0yCEFRCAAAQgAAEIQKAbgZUS3mVUeoOacsBXWYBLbP/y9Uvz11Avw8sayv7lMwQgAAEIQAACEJgagZUV3sERmn7w4c/smO0vXse9CoteQxxeg8zMJKvgcdoIAQhAAAIQgMBUCKy88A6OCGkoygVfJhGu1zGfKV4PfbpYk7MdvM0aAhCAAAQgAAEIDE8A4V3BPIjw++7cOttXRMS9pKNoFhKljJx+bW2+luhmgQAEIAABCEAAAhCYBgGEt8EPEuL33bll/mIepabo35iLcrP1AKSE9RsXLs/+cOFKEdVe/25Mu6gbAhCAAAQgAAEIQKCeAMK7nk3jLxLje2/bNNu59Ya5IN+5ZUPx9+b5PuG3xgIqflTEWiJai9JDLq59MP+sKPbFS1dnbxd/8xDkHAn/QQACEIAABCAAAXcEEN7uXIbBEIAABCAAAQhAAAIeCSC8PXoNmyEAAQhAAAIQgAAE3BFAeLtzGQZDAAIQgAAEIAABCHgkgPD26DVshgAEIAABCEAAAhBwRwDh7c5lGAwBCEAAAhCAAAQg4JEAwtuj17AZAhCAAAQgAAEIQMAdAYS3O5dhMAQgAAEIQAACEICARwIIb49ew2YIQAACEIAABCAAAXcEEN7uXIbBEIAABCAAAQhAAAIeCSC8PXoNmyEAAQhAAAIQgAAE3BFAeLtzGQZDAAIQgAAEIAABCHgkgPD26DVshgAEIAABCEAAAhBwRwDh7c5lGAwBCEAAAhCAAAQg4JEAwtuj17AZAhCAAAQgAAEIQMAdAYS3O5dhMAQgAAEIQAACEICARwIIb49ew2YIQAACEIAABCAAAXcEEN7uXIbBEIAABCAAAQhAAAIeCSC8PXoNmyEAAQhAAAIQgAAE3BFAeLtzGQZDAAIQgAAEIAABCHgkgPD26DVshgAEIAABCEAAAhBwRwDh7c5lGAwBCEAAAhCAAAQg4JEAwtuj17AZAhCAAAQgAAEIQMAdAYS3O5dhMAQgAAEIQAACEICARwIIb49ew2YIQAACEIAABCAAAXcEEN7uXIbBEIAABCAAAQhAAAIeCSC8PXoNmyEAAQhAAAIQgAAE3BFAeLtzGQZDAAIQgAAEIAABCHgkgPD26DVshgAEIAABCEAAAhBwRwDh7c5lGAwBCEAAAhCAAAQg4JEAwtuj17AZAhCAAAQgAAEIQMAdAYS3O5dhMAQgAAEIQAACEICARwIIb49ew2YIQAACEIAABCAAAXcEEN7uXIbBEIAABCAAAQhAAAIeCSC8PXoNmyEAAQhAAAIQgAAE3BFAeLtzGQZDAAIQgAAEIAABCHgkgPD26DVshgAEIAABCEAAAhBwRwDh7c5lGAwBCEAAAhCAAAQg4JEAwtuj17AZAhCAAAQgAAEIQMAdAYS3O5dhMAQgAAEIQAACEICARwIIb49ew2YIQAACEIAABCAAAXcEEN7uXIbBEIAABCAAAQhAAAIeCSC8PXoNmyEAAQhAAAIQgAAE3BFAeLtzGQZDAAIQgAAEIAABCHgkgPD26DVshgAEIAABCEAAAhBwRwDh7c5lGAwBCEAAAhCAAAQg4JEAwtuj17AZAhCAAAQgAAEIQMAdAYS3O5dhMAQgAAEIQAACEICARwIIb49ew2YIQAACEIAABCAAAXcEEN7uXIbBEIAABCAAAQhAAAIeCSC8PXoNmyEAAQhAAAIQgAAE3BFAeLtzGQZDAAIQgAAEIAABCHgkgPD26DVshgAEIAABCEAAAhBwRwDh7c5lGAwBCEAAAhCAAAQg4JEAwtuj17AZAhCAAAQgAAEIQMAdAYS3O5dhMAQgAAEIQAACEICARwIIb49ew2YIQAACEIAABCAAAXcEEN7uXIbBEIAABCAAAQhAAAIeCSC8PXoNmyEAAQhAAAIQgAAE3BFAeLtzGQZDAAIQgAAEIAABCHgkgPD26DVshgAEIAABCEAAAhBwRwDh7c5lGAwBCEAAAhCAAAQg4JEAwtuj17AZAhCAAAQgAAEIQMAdAYS3O5dhMAQgAAEIQAACEICARwIIb49ew2YIQAACEIAABCAAAXcEEN7uXIbBEIAABCAAAQhAAAIeCSC8PXoNmyEAAQhAAAIQgAAE3BFAeLtzGQZDAAIQgAAEIAABCHgkgPD26DVshgAEIAABCEAAAhBwRwDh7c5lGAwBCEAAAhCAAAQg4JEAwtuj17AZAhCAAAQgAAEIQMAdAYS3O5dhMAQgAAEIQAACEICARwIIb49ew2YIQAACEIAABCAAAXcEEN7uXIbBEIAABCAAAQhAAAIeCSC8PXoNmyEAAQhAAAIQgAAE3BFAeLtzGQZDAAIQgAAEIAABCHgkgPD26DVshgAEIAABCEAAAhBwRwDh7c5lGAwBCEAAAhCAAAQg4JEAwtuj17AZAhCAAAQgAAEIQMAdAYS3O5dhMAQgAAEIQAACEICARwIIb49ew2YIQAACEIAABCAAAXcEEN7uXIbBEIAABCAAAQhAAAIeCSC8PXoNmyEAAQhAAAIQgAAE3BFAeLtzGQZDAAIQgAAEIAABCHgkgPD26DVshgAEIAABCEAAAhBwRwDh7c5lGAwBCEAAAhCAAAQg4JEAwtuj17AZAhCAAAQgAAEIQMAdAYS3O5dhMAQgAAEIQAACEICARwIIb49ew2YIQAACEIAABCAAAXcEEN7uXIbBEIAABCAAAQhAAAIeCSC8PXoNmyEAAQhAAAIQgAAE3BFAeLtzGQZDAAIQgAAEIAABCHgkgPD26DVshgAEIAABCEAAAhBwRwDh7c5lGAwBCEAAAhCAAAQg4JEAwtuj17AZAhCAAAQgAAEIQMAdgf8Fq0On7LYD3oMAAAAASUVORK5CYII=;clipPath=inset(10.32% 0% 3.97% 0% round 50%);fontStyle=1" vertex="1" parent="1">
          <mxGeometry x="930" y="220" width="194.44" height="70" as="geometry" />
        </mxCell>
        <mxCell id="MWWr7V7YPQYtdsiXqIRb-19" value="&lt;b&gt;Kubernetes&lt;br&gt;Cluster&lt;br&gt;&lt;/b&gt;" style="image;sketch=0;aspect=fixed;html=1;points=[];align=center;fontSize=12;image=img/lib/mscae/Kubernetes.svg;" vertex="1" parent="1">
          <mxGeometry x="551.67" y="366" width="66.67" height="64" as="geometry" />
        </mxCell>
        <mxCell id="YL9N1IMaY4C_ngLvxTa7-5" value="&lt;b&gt;Webhook&lt;/b&gt;" style="edgeStyle=orthogonalEdgeStyle;rounded=0;orthogonalLoop=1;jettySize=auto;html=1;entryX=0;entryY=0.5;entryDx=0;entryDy=0;dashed=1;" edge="1" parent="1" source="oO93laWmTxZwHym1CoBp-1" target="MWWr7V7YPQYtdsiXqIRb-1">
          <mxGeometry relative="1" as="geometry">
            <Array as="points">
              <mxPoint x="60" y="565" />
            </Array>
          </mxGeometry>
        </mxCell>
        <mxCell id="oO93laWmTxZwHym1CoBp-1" value="Pagamentos" style="shape=image;verticalLabelPosition=top;labelBackgroundColor=default;verticalAlign=bottom;aspect=fixed;imageAspect=0;image=https://seeklogo.com/images/M/mercado-pago-logo-52B7182205-seeklogo.com.png;fontStyle=1;labelPosition=center;align=center;" vertex="1" parent="1">
          <mxGeometry x="40" y="240" width="105.76" height="98" as="geometry" />
        </mxCell>
        <mxCell id="YL9N1IMaY4C_ngLvxTa7-2" value="Devices" style="shape=image;verticalLabelPosition=top;labelBackgroundColor=default;verticalAlign=bottom;aspect=fixed;imageAspect=0;image=data:image/png,iVBORw0KGgoAAAANSUhEUgAAAMgAAADICAYAAACtWK6eAAAABHNCSVQICAgIfAhkiAAAAAlwSFlzAAALEwAACxMBAJqcGAAAB/VJREFUeJzt3WusHGUdx/Fvz7GttCK0KJUmxmgD1ShHFEWsUQQVCWnTEj0qhqRGEV8YvCR4jwRvgURDsAavvNCYcLPeEoRigppo8IJECYhYA7bGWBSkoVSF3o4vnnOC7dn9z15m53l2zveTTJrs7Mz8O2d/u8/MPDMPSJIkSZIkSZIkSZIkSZIkSZIkSZIkSZIkSZIkSZIkSZIkSZIkSZIkSZIkSZIkSZKk2iwaYJk1wDRwGnACsLjWijRqh4A9wL3ArcA24GDWilpiNXADaQfPOLVmegA4Dw1lHfAQ+f+YTqObtgAT6DCTPbznxcBPgBUjrkV5vQI4ltTk0qyqgCwFbiM1r9R+pwN3AttzF1KKqp/UdwNrmyhExfgCg528aaWqgLynkSpUkrXAGbmLKMVTgnmrgRdVLL8LeKS+ctSACeAk4ub1G4GfNVLNGDuT+KzHt/Gsx7haR7r20e1v+/18pZUl+oAfXbHsjaRrIho/twM7g/nHNFVI6aKAVP06zNRZiBoXfbnZMpjljpACBkQKGBApYECkgAGRAgZEChgQKWBApIABkQIGRAoYEClgQKSAAZECBkQKGBApYECkgAGRAgZEChgQKRA99kfttoH05MxO9jZZSMkMyML1x9wFjAObWFLAgEgBAyIFDIgU8CC9vZYCLyWNI9npi7DTkzG7PS2z23u7DZPQ6fV+3rsPuI/CxynZRPzw6vX5SlNgGXAF8Cj5h3UbdroH2Fjv7qmPARk/xwN3kf+DXfd0eZ07qR8eg7THImArMJW7kBH4KHBhjg0bkPaYBl6du4gRuoLUfGyUAWmPC3IXMGLHAec2vVED0h5tbFod6ZSmN+hp3vZ4WsX8XaTTpyVbATw9mL+8qULmGJD2u590fPK73IX0YBK4CPgSnQcZbXx4aptY7Xc+4xEOSAOLfgW4OnchcwxIu+0G7shdxABuzl3AHAPSbqUfc3TzRO4C5hgQKWBApIABkQIGRAoYEClgQKSAAZECdjVRiQ6SLnIeOuL1xh9oZ0BUop8DK3MXATaxpJABkQIGRAoYEClgQKSAZ7FUmpXAecDJwFNrXvdB4G/ATcDdw67MB8eNl4eZ/zd6MGtF/buYdK2jiYfR3QgcW1WQTSyV4jJgC809mGEa+GnV9gyISnAacGmG7Z4CfCZ6gwFRCd5HhieWzLqI4ImNBkQleE3GbS8HXtJtpgFRCVZk3v5x3WYYEJUgV/NqTtccGBApYECkgAGRAnY1UaleD/yh5nUuIz3Mu2cGRKX6F/V3lakaImIem1hSwIBIgWECkvvctTRywwTkTRgStdwwB+mbgdeS7kNQM74LXJ67iIVk2LNYz5md1Izf5i5gofEgXQoYEClgQKSAAZECdjWZ7zZgG+npGlOkccYrn36hdjIgT3qcFIYfHPH6ZcD3gFc1XZDys4n1pA8yPxwA/wQ2zP6rBcaAJA8D1wTzdwNfa6gWFcSAJL8HDlS85zdNFKKyRAGZbKyK/Bb38J4lI69CxYkC8p/GqsjvZVTfTHNmE4WoLFFA+ro1ccwtBz4ZzD8JeFdDtaggUUC2AzubKqQAHwY+xfym1CuBHwNHNV6Rsqs6SP9yI1WU41Lgr8B1wNeBXwG3Y4/lBavqQuEW4B3AC0ZfSjFWAW/LXYTKUPUL8jiwkfEbiEWqRS/XQf4MnA78YsS1SMXp9ULhTtIj6jeR+iXZ7UILQj+dFWeAH85OkC4k9nKBLacJYA/NXvT8AHD1iNZ9aETrVRfD9OY9ODuV7ESa7xGwhupuKxoTbe+LdcYC2aZGpO0BOT/DNqdYWKfFW63NATkVOCvTti/JtF3VrK0BmSBd5MxlM2lo49xW0Ny4463U1oB8GliXcfuTpO4qKzPWAKlfWdQJUxXaeE/6JcAnchcBPI/UyfFs4JGMdXwEeCFwE/BExjruZQxvOmtTQJYDVwEX5i7k/5wK3AG8BbgzYx3rZ6ecvkh/AbkB+G/NNbS1xRSaIHUu3EG6mFnidIAU3lWj2QVAuq8+9/8zmq4Kat+bubZN3Qob50Q9F/g4cB+pvV9yl/RJ4P3AX4BvAq+j/F4IkQeArwLXU/+3fD+2AeeQ+gp+FtifsZaslgFvAD4EfIt0t2Pub8Rhp8eAW0jDGbwVOH7IfdTUL8hWDr+pbC3wjx6Wq/sX5Gbmf8FvHvD/1PUXZBxsIA3omPsDPeppH+kXcVC9fEiHnfYDz+iw7Yt7WDYKyGMD1HJ2h/UsAh4aYF0buxVWehNrDfAd8p8ubcJi4HPA9IDL76ivlK4epPOASXf3sGx0QmjvALXs6fDaDClsdawLKD8gbweW5i6iYe8ccLlbaq2isxOAZ3Z4faqHZZ8VzBtkYKANHV47mXRs2o8DwF0DbL8IV5K/6dP09OsB99Uq4NEG6tvK4ScYTqS35t32oPb1A9Sxn3RKf+5Lfgr40wDruS6oq3hvJv8HtunpyiH21zTpFoRR13g/6Z6Xa4F/97Hcs4Parx2wlt2kG/oGWXYXsLqH/VqsCeBW8n9om5p20LkJ04+NlHtN5GNB3UuAbzRYyz3A86t25jgM47wEeC9wLnB05lpGZR/wS+Dz1DNq8DGk47ezSN+QnY41Z3p8LXq9X38nndKO1vdy4ALS8cRR1PsZPUB6rNOPSFfqvbFNkiRJkiRJkiRJkiRJkiRJkiRJkiRJkiRJkiRJkiRJkiRJkiRJkiRJkiRJkiRJkqQm/Q8mjiHDhI5rQQAAAABJRU5ErkJggg==;fontStyle=1;labelPosition=center;align=center;" vertex="1" parent="1">
          <mxGeometry x="290" y="190" width="130" height="130" as="geometry" />
        </mxCell>
        <mxCell id="YL9N1IMaY4C_ngLvxTa7-4" style="edgeStyle=orthogonalEdgeStyle;rounded=0;orthogonalLoop=1;jettySize=auto;html=1;entryX=0.504;entryY=0.027;entryDx=0;entryDy=0;entryPerimeter=0;" edge="1" parent="1" source="YL9N1IMaY4C_ngLvxTa7-2" target="MWWr7V7YPQYtdsiXqIRb-19">
          <mxGeometry relative="1" as="geometry" />
        </mxCell>
      </root>
    </mxGraphModel>
  </diagram>
</mxfile>
